<svg xmlns="http://www.w3.org/2000/svg" xmlns:xlink="http://www.w3.org/1999/xlink" width="685pt" height="364" viewBox="0 0 685 273"><defs><symbol overflow="visible" id="b"><path d="M3.547-2.23c0 .34-.03.652-.102.933-.07.28-.172.524-.312.723-.137.203-.31.36-.516.47-.207.112-.45.166-.726.166-.238 0-.456-.046-.652-.136C1.043-.164.875-.3.734-.488c-.14-.188-.246-.426-.32-.715C.34-1.493.3-1.836.3-2.23c0-.344.036-.657.106-.938.07-.28.172-.523.31-.727.136-.203.31-.36.518-.468.207-.11.45-.164.723-.164.238 0 .457.043.652.132.195.09.367.23.503.418.14.188.246.426.32.715.075.29.114.633.114 1.032zm-.602.02c0-.08 0-.157-.007-.23-.004-.08-.012-.154-.02-.224l-1.89 1.402c.034.117.077.227.132.328.05.102.113.188.188.258.074.074.16.13.254.168.093.04.203.06.324.06.152 0 .293-.036.422-.114.125-.075.234-.184.32-.333.09-.148.16-.332.207-.554.047-.218.07-.472.07-.76zM.902-2.255v.215l.012.204 1.89-1.398c-.03-.118-.074-.223-.128-.317-.05-.098-.114-.18-.188-.25-.074-.067-.156-.122-.25-.16-.093-.04-.2-.06-.312-.06-.156 0-.297.04-.422.114-.13.074-.234.187-.324.336-.09.148-.157.336-.207.554-.047.22-.07.473-.07.762zm0 0"/></symbol><symbol overflow="visible" id="c"><path d="M1.926-3.492c.07 0 .137.012.2.043.062.028.12.067.167.114.047.047.086.106.113.168.03.063.043.13.043.2 0 .073-.013.144-.044.206-.027.063-.066.117-.113.164s-.102.086-.168.114c-.063.027-.13.04-.2.04-.073 0-.14-.013-.202-.04-.063-.028-.12-.067-.168-.114-.047-.047-.086-.1-.114-.164-.026-.062-.038-.133-.038-.207 0-.07.012-.135.04-.198.027-.062.066-.12.113-.168.047-.047.105-.086.168-.113.062-.027.13-.042.203-.042zm0 2.504c.07 0 .137.015.2.043.062.027.12.066.167.113.047.05.086.105.113.168.03.062.043.133.043.203 0 .073-.013.14-.044.202-.027.063-.066.117-.113.164s-.102.086-.168.114c-.063.027-.13.042-.2.042-.073 0-.14-.015-.202-.042-.063-.028-.12-.063-.168-.114-.047-.047-.086-.1-.114-.164-.026-.062-.038-.13-.038-.203 0-.07.012-.138.04-.204.027-.063.066-.117.113-.168.047-.047.105-.086.168-.113.062-.028.13-.043.203-.043zm0 0"/></symbol><symbol overflow="visible" id="d"><path d="M3.406 0H.602v-.555H1.75v-3.257l-1.07.578-.22-.504 1.423-.75h.527v3.933h.996zm0 0"/></symbol><symbol overflow="visible" id="e"><path d="M3.445 0H.505v-.53l1.15-1.15c.193-.187.345-.35.462-.488.12-.137.21-.262.278-.375.066-.113.113-.22.136-.316.025-.1.033-.21.033-.328 0-.11-.016-.21-.043-.312-.032-.098-.075-.184-.137-.258-.063-.078-.14-.137-.238-.18-.098-.042-.215-.066-.356-.066-.188 0-.36.043-.517.13-.152.08-.296.19-.425.327L.52-3.94c.167-.177.363-.322.582-.427.218-.11.476-.16.77-.16.198 0 .378.027.538.086.164.057.305.143.422.256.12.114.21.25.277.41.062.16.097.344.097.547 0 .172-.023.33-.07.477-.043.145-.114.29-.207.434-.09.144-.207.296-.348.45-.14.155-.305.323-.496.51l-.813.79h2.172zm0 0"/></symbol><symbol overflow="visible" id="f"><path d="M3.36-1.355c0 .195-.04.378-.118.55-.082.172-.203.32-.36.45-.16.128-.362.23-.6.304-.243.073-.524.113-.845.113-.18 0-.34-.008-.48-.02C.817.03.684.02.563 0v-.53c.14.022.29.042.445.053.156.016.32.024.484.024.223 0 .414-.02.57-.063.16-.04.29-.097.387-.17.1-.076.175-.166.218-.275.047-.106.07-.228.07-.364 0-.12-.027-.23-.082-.32-.054-.09-.133-.17-.23-.23-.098-.06-.22-.106-.356-.138-.136-.03-.29-.047-.453-.047H1.11v-.487h.515c.133 0 .254-.015.367-.05.11-.036.203-.087.28-.153.08-.066.142-.148.185-.246.043-.098.063-.207.063-.328 0-.24-.075-.414-.22-.524-.144-.11-.36-.164-.644-.164-.148 0-.304.016-.465.043-.16.033-.327.075-.51.134v-.52c.078-.027.16-.05.25-.074.086-.02.172-.04.26-.054.087-.016.177-.024.263-.032.086-.007.168-.01.25-.01.234 0 .445.022.625.073.18.05.328.125.45.223.12.093.214.21.273.347.063.137.095.29.095.46 0 .255-.067.47-.196.646-.134.172-.313.308-.54.41.117.02.23.054.344.11.113.054.215.124.305.21.088.086.16.188.217.305.055.117.082.242.082.387zm0 0"/></symbol><symbol overflow="visible" id="g"><path d="M3.668-.988h-.762V0h-.61v-.988H.15v-.524L2.05-4.47h.856v2.958h.762zm-1.37-2.907L.74-1.512h1.555zm0 0"/></symbol><symbol overflow="visible" id="h"><path d="M3.332-1.43c0 .223-.047.422-.144.606-.094.183-.227.34-.395.47-.168.13-.363.233-.59.307-.23.07-.476.11-.742.11-.065 0-.136-.004-.21-.008L1.023.043C.945.04.875.03.8.023.73.016.665.008.61 0v-.54c.12.028.26.052.42.063.157.016.318.024.482.024.183 0 .343-.024.492-.067.144-.042.27-.105.37-.187.103-.082.18-.176.235-.293.054-.113.085-.242.085-.387 0-.277-.1-.48-.3-.61-.2-.124-.485-.187-.86-.187H.688V-4.47h2.406v.52H1.246v1.255h.39c.216 0 .423.02.626.058.203.04.383.11.543.203.156.098.285.227.382.39.098.165.145.368.145.614zm0 0"/></symbol><symbol overflow="visible" id="j"><path d="M3.633 0h-.817L1.22-1.84V0h-.6v-4.828h.6v2.965L2.757-3.43h.785l-1.61 1.582zm0 0"/></symbol><symbol overflow="visible" id="k"><path d="M3.5-1.414c0 .203-.035.398-.11.578-.074.18-.18.336-.316.47-.136.132-.304.237-.496.31-.19.08-.406.118-.64.118-.247 0-.465-.04-.653-.117-.187-.078-.347-.2-.476-.363-.126-.164-.224-.37-.29-.617-.067-.25-.098-.543-.098-.883 0-.227.012-.45.043-.664.03-.215.078-.414.148-.606.067-.187.157-.36.274-.515.113-.16.254-.293.425-.406.168-.113.368-.202.598-.265.23-.063.496-.094.8-.094h.442v.52h-.48c-.266 0-.496.036-.692.098-.195.063-.363.153-.492.27-.133.117-.234.258-.304.422-.07.164-.118.348-.133.55l-.015.137c.145-.082.31-.152.496-.203.19-.05.396-.074.615-.074.222 0 .42.03.59.098.17.066.312.156.425.273.113.118.2.263.254.427.06.164.086.344.086.54zm-.62.035c0-.136-.017-.257-.052-.37-.03-.11-.086-.203-.156-.277-.07-.078-.16-.137-.266-.18-.11-.043-.238-.063-.39-.063-.086 0-.172.008-.262.024-.09.016-.176.04-.262.066-.086.028-.168.063-.246.098-.078.035-.148.074-.21.117 0 .293.02.54.062.735.04.2.1.355.183.476.08.117.18.203.298.25.117.05.258.078.41.078.13 0 .25-.023.36-.066.105-.04.2-.102.277-.184.078-.082.14-.183.188-.3.042-.118.066-.25.066-.403zm0 0"/></symbol><symbol overflow="visible" id="l"><path d="M3.422-3.914L1.547 0h-.68l1.946-3.914H.397v-.555h3.024zm0 0"/></symbol><symbol overflow="visible" id="m"><path d="M-3.922-.785v-.62l.723-.02c-.277-.23-.48-.462-.605-.688-.125-.223-.187-.45-.187-.68 0-.406.133-.715.394-.926.262-.206.653-.303 1.172-.288v.688c-.344-.008-.594.043-.746.148-.156.11-.234.27-.234.477 0 .09.015.183.047.273.036.094.087.188.157.29.074.097.164.198.277.308.114.11.246.226.406.35H0v.69zm0 0"/></symbol><symbol overflow="visible" id="n"><path d="M-2.168-3.938c.098 0 .176 0 .242.004l.184.012v2.754c.402 0 .71-.113.926-.336.214-.223.32-.547.32-.97 0-.112-.004-.23-.012-.342-.012-.114-.023-.227-.04-.332-.014-.106-.03-.21-.05-.305-.02-.098-.043-.192-.066-.274h.56c.05.184.092.395.127.625.032.235.047.477.047.727 0 .336-.047.625-.136.867-.09.242-.223.442-.395.594-.177.156-.388.273-.642.344-.25.074-.535.113-.85.113-.278 0-.54-.04-.782-.12-.246-.08-.465-.196-.65-.35-.186-.15-.335-.335-.444-.557-.11-.223-.164-.473-.164-.754 0-.274.043-.516.13-.727.085-.21.206-.387.362-.535.16-.145.352-.25.578-.328.223-.074.477-.11.754-.11zm-.098.708c-.175-.008-.336.007-.476.05-.145.043-.27.106-.375.196-.106.086-.188.195-.242.324-.058.13-.09.28-.09.453 0 .148.028.285.087.406.058.12.136.226.242.316.104.09.23.16.374.214.144.055.305.09.48.102zm0 0"/></symbol><symbol overflow="visible" id="o"><path d="M-1.88-.426c-.28 0-.546-.04-.8-.113-.254-.073-.476-.187-.664-.343-.19-.152-.344-.35-.457-.594-.114-.242-.17-.53-.17-.867 0-.133.013-.265.033-.394.02-.13.054-.27.097-.414l-.152-.602h5.594v.684H.122l-.84-.035c.527.37.788.808.788 1.32 0 .23-.047.43-.14.597-.094.168-.227.313-.4.422-.17.114-.378.2-.616.254-.238.06-.504.086-.793.086zm-.042-.695c.22 0 .414-.017.59-.052.176-.03.324-.078.445-.148.12-.067.21-.15.278-.25.067-.098.098-.215.098-.352 0-.172-.078-.35-.23-.547-.153-.19-.383-.39-.684-.6h-1.82c-.05.105-.09.222-.12.35-.032.134-.048.275-.048.423 0 .383.125.676.38.875.253.2.624.3 1.112.3zm0 0"/></symbol><symbol overflow="visible" id="p"><path d="M0-3.777v.61l-.633.022c.137.118.25.23.34.333.09.105.16.21.215.316.055.105.094.207.117.316.02.106.03.215.03.332 0 .403-.117.707-.355.914-.238.207-.594.31-1.074.31H-3.92v-.68h2.508c.6 0 .902-.227.902-.68 0-.082-.01-.164-.035-.243-.027-.082-.07-.164-.13-.25-.06-.09-.143-.183-.25-.28-.104-.102-.233-.216-.393-.34h-2.602v-.68zm0 0"/></symbol><symbol overflow="visible" id="q"><path d="M-1.07-3.73c.136 0 .26.023.37.07.11.047.208.11.294.19.082.083.156.177.215.283.057.105.108.218.147.343.04.12.066.242.086.37.02.13.027.255.027.376 0 .266-.01.512-.035.73-.023.223-.062.442-.113.657h-.625c.066-.23.113-.458.148-.685.035-.226.05-.453.05-.675 0-.325-.042-.567-.132-.723-.09-.156-.215-.234-.38-.234-.07 0-.13.01-.186.035-.06.027-.11.07-.16.137-.05.066-.106.167-.16.3-.055.137-.118.325-.188.563-.052.176-.11.34-.18.488-.067.152-.145.28-.235.39-.09.11-.2.196-.32.26-.12.06-.266.092-.434.092-.108 0-.23-.027-.358-.078-.13-.05-.25-.137-.364-.258-.113-.12-.203-.29-.28-.496-.075-.207-.11-.468-.11-.78 0-.153.008-.325.023-.513.02-.187.048-.383.09-.586h.607c-.05.215-.09.418-.118.606-.024.19-.036.36-.036.5 0 .168.012.312.04.426.027.116.062.21.105.28.046.074.1.125.163.156.058.03.125.047.195.047s.133-.016.192-.043c.058-.027.113-.078.167-.152.05-.075.106-.176.157-.31.054-.132.113-.304.176-.518.066-.23.136-.426.214-.586.075-.16.157-.29.246-.387.09-.098.196-.172.31-.21.112-.044.245-.067.39-.067zm0 0"/></symbol><symbol overflow="visible" id="r"><path d="M-.055-3.785c.04.152.067.312.086.476.017.165.025.333.025.5 0 .494-.11.86-.332 1.103-.223.242-.567.363-1.028.363h-2.047v1.098h-.57v-1.098H-5l-.176-.68h1.254v-1.76h.57v1.76h1.993c.282 0 .493-.074.633-.226.137-.148.207-.367.207-.66 0-.125-.007-.262-.027-.41-.02-.15-.05-.305-.094-.465zm0 0"/></symbol><symbol overflow="visible" id="t"><path d="M-2.03-3.977c.346 0 .65.047.913.15.262.097.476.23.648.4.173.173.302.376.388.61.086.235.13.49.13.762 0 .125-.01.25-.02.375-.012.12-.036.246-.067.375h1.642v.68h-5.524v-.605l.656-.043c-.27-.196-.457-.403-.562-.625-.11-.223-.164-.46-.164-.72 0-.222.047-.42.14-.59.094-.167.227-.312.4-.425.167-.113.374-.2.616-.258.238-.06.508-.087.805-.087zm.03.696c-.207 0-.395.014-.566.046-.172.027-.32.074-.442.14-.12.067-.22.15-.29.25-.065.102-.1.223-.1.364 0 .085.015.17.04.26.026.09.073.18.14.275.062.097.148.195.25.3.105.106.238.22.394.34h1.902c.05-.125.094-.258.125-.394.027-.136.043-.273.043-.405 0-.368-.125-.657-.37-.864-.25-.206-.626-.31-1.126-.31zm0 0"/></symbol><symbol overflow="visible" id="u"><path d="M-.145-3.672c.067.176.118.36.153.547.03.184.047.375.047.574 0 .62-.168 1.097-.504 1.433-.335.332-.827.5-1.472.5-.308 0-.59-.047-.844-.145-.254-.097-.468-.23-.648-.406-.18-.176-.32-.383-.414-.625-.098-.242-.15-.508-.15-.8 0-.204.017-.395.044-.57.028-.177.075-.35.14-.51h.65c-.09.17-.153.345-.192.517-.043.176-.062.36-.062.547 0 .176.03.34.1.493.068.156.16.293.286.41.125.117.278.21.457.277.18.067.383.102.61.102.472 0 .828-.117 1.066-.344.235-.23.353-.55.353-.96 0-.184-.02-.364-.063-.54-.043-.172-.105-.34-.187-.5zm0 0"/></symbol><symbol overflow="visible" id="v"><path d="M-1.992-4.04c.304 0 .586.044.84.13.254.086.468.21.652.37.18.16.32.36.422.59.098.23.148.497.148.79 0 .28-.043.535-.13.754-.088.222-.217.414-.385.57-.168.152-.38.273-.63.352-.25.082-.538.125-.863.125-.304 0-.582-.042-.835-.128-.25-.086-.465-.21-.65-.37-.18-.162-.32-.36-.42-.59-.098-.232-.15-.497-.15-.79 0-.282.044-.535.134-.758.087-.223.212-.41.383-.567.168-.152.375-.273.625-.35.25-.083.536-.126.86-.126zm.03.696c-.24 0-.452.028-.632.078-.183.055-.336.133-.453.23-.12.1-.215.22-.273.364-.063.14-.094.297-.094.473 0 .204.04.376.117.52.082.145.188.266.32.356.133.094.29.16.46.203.177.042.365.065.556.065.24 0 .452-.027.636-.078.183-.054.332-.133.457-.23.12-.098.21-.22.273-.36.06-.14.09-.3.09-.476 0-.202-.04-.378-.117-.52-.083-.143-.19-.264-.32-.358-.134-.09-.287-.156-.462-.203-.176-.044-.364-.064-.56-.064zm0 0"/></symbol><symbol overflow="visible" id="w"><path d="M-3.922-.625v-.605l.633-.028c-.136-.113-.25-.226-.335-.332-.09-.105-.164-.21-.22-.316-.053-.102-.092-.207-.116-.313-.02-.104-.032-.217-.032-.33 0-.403.117-.712.36-.92.237-.206.593-.307 1.073-.307H0v.68h-2.504c-.308 0-.535.058-.683.17-.145.115-.22.286-.22.513 0 .082.012.164.04.242.023.082.066.164.125.25.062.086.144.18.25.277.105.102.234.215.39.34H0v.68zm0 0"/></symbol><symbol overflow="visible" id="x"><path d="M-1.88-.426c-.33 0-.628-.047-.886-.137-.26-.09-.48-.222-.656-.39-.18-.168-.316-.367-.406-.606-.094-.233-.14-.495-.14-.784 0-.125.007-.25.023-.37.015-.122.04-.24.074-.356h-1.65v-.684H0v.61l-.742.023c.277.19.48.393.613.616.134.223.2.46.2.72 0 .222-.047.42-.14.59-.094.17-.227.31-.395.428-.172.114-.38.196-.617.254-.238.06-.504.086-.797.086zm-.042-.695c.473 0 .828-.07 1.063-.208.23-.14.348-.34.348-.594 0-.172-.078-.35-.23-.547-.153-.19-.383-.39-.684-.6h-1.82c-.05.113-.09.234-.12.37-.03.138-.04.27-.04.403 0 .37.12.656.36.863.237.207.612.313 1.124.313zm0 0"/></symbol><symbol overflow="visible" id="y"><path d="M4.133-.164c-.2.078-.406.133-.613.172-.21.035-.426.054-.65.054-.698 0-1.233-.19-1.612-.566-.375-.38-.563-.933-.563-1.66 0-.348.055-.664.16-.945.11-.285.262-.53.458-.73.195-.203.433-.36.703-.47.273-.108.574-.163.902-.163.23 0 .44.016.64.047.2.03.39.086.575.16v.727c-.192-.097-.387-.17-.586-.214-.195-.047-.4-.07-.61-.07-.2 0-.382.04-.558.113-.177.073-.33.183-.458.323-.133.14-.238.31-.313.512-.08.203-.118.43-.118.688 0 .53.133.93.39 1.195.26.265.618.398 1.08.398.206 0 .41-.023.604-.07.196-.047.383-.117.567-.21zm0 0"/></symbol><symbol overflow="visible" id="z"><path d="M4.383 0H.773v-.71H2.25v-4.196l-1.375.75-.28-.653 1.827-.96h.676v5.06h1.285zm0 0"/></symbol><symbol overflow="visible" id="A"><path d="M4.95 1.8H0V1.17h4.95zm0 0"/></symbol><symbol overflow="visible" id="B"><path d="M4.25 0h-.766v-2.816c0-.34-.062-.594-.19-.762-.13-.168-.31-.254-.548-.254-.1 0-.2.016-.29.043-.09.028-.18.075-.276.145-.098.067-.203.16-.317.278-.113.117-.246.265-.394.44V0H.702v-6.21h.766v1.796l-.03.695c.123-.143.24-.26.357-.362.113-.098.23-.176.344-.238.118-.063.235-.106.356-.133.12-.024.246-.04.375-.04.44 0 .778.138 1.02.403.24.27.36.672.36 1.21zm0 0"/></symbol><symbol overflow="visible" id="C"><path d="M4.543-2.242c0 .344-.047.656-.145.945-.097.285-.234.527-.418.73-.18.204-.402.364-.664.477-.26.113-.554.168-.886.168-.317 0-.598-.047-.852-.144-.25-.098-.46-.246-.637-.434C.77-.69.638-.926.544-1.207.45-1.487.406-1.812.406-2.18c0-.343.047-.656.145-.937.098-.28.235-.528.42-.73.178-.204.4-.364.66-.473.26-.114.558-.172.89-.172.316 0 .597.05.847.148.25.098.465.242.637.43.176.187.31.426.402.707.094.28.137.602.137.965zm-.78.035c0-.273-.033-.508-.09-.715-.06-.203-.146-.37-.26-.508-.108-.136-.245-.238-.405-.308-.16-.067-.336-.102-.535-.102-.227 0-.422.043-.586.133-.16.09-.297.207-.4.36-.104.148-.178.32-.23.52-.046.198-.07.405-.07.62 0 .273.028.512.09.72.06.202.145.374.258.51.11.137.246.24.403.305.16.07.335.106.535.106.23 0 .425-.047.59-.133.16-.09.292-.21.398-.36.106-.147.18-.323.228-.518.05-.2.074-.406.074-.63zm0 0"/></symbol><symbol overflow="visible" id="D"><path d="M4.79-4.414L4.147 0h-.925l-.637-1.844-.13-.45-.143.474L1.7 0H.8L.165-4.414H.91l.367 3 .082.668.187-.586.64-1.98h.55L3.43-1.36l.195.587.066-.622.345-3.02zm0 0"/></symbol><symbol overflow="visible" id="E"><path d="M4.473-2.285c0 .367-.05.695-.153.98-.1.29-.242.535-.43.735-.187.203-.41.355-.68.46-.265.11-.565.165-.897.165-.262 0-.528-.028-.8-.078-.275-.047-.544-.13-.81-.235V-6.21h.766v1.71l-.036.816c.218-.296.453-.503.703-.625.25-.12.52-.182.808-.182.25 0 .473.054.664.16.187.105.347.254.476.445.13.192.226.422.29.696.065.268.097.573.097.905zm-.782.035c0-.23-.014-.445-.05-.637-.035-.195-.085-.36-.16-.496-.074-.137-.167-.246-.28-.324-.114-.078-.25-.117-.41-.117-.095 0-.196.015-.294.047-.098.03-.203.082-.308.152-.11.074-.223.168-.34.29-.118.116-.246.265-.38.44v2.137c.15.06.302.106.458.14.156.036.3.052.44.052.177 0 .345-.028.505-.082.16-.06.302-.153.423-.282.12-.13.22-.304.29-.52.073-.214.108-.48.108-.8zm0 0"/></symbol><symbol overflow="visible" id="F"><path d="M4.63-4.414L3.124-.464C2.97-.063 2.81.28 2.645.57c-.168.29-.348.528-.543.715-.196.188-.414.324-.65.41-.233.09-.495.133-.784.133-.074 0-.145 0-.207-.004L.26 1.812v-.695l.21.024c.08.008.157.012.243.012.142 0 .274-.02.395-.062.122-.043.24-.11.344-.2.11-.093.214-.21.312-.36.1-.143.195-.323.29-.53L.288-4.414h.87l1.117 2.922.223.683.254-.702L3.79-4.414zm0 0"/></symbol><symbol overflow="visible" id="H"><path d="M3.688 0H.784v-5.105h2.903v.585H1.48v1.582h2.122v.586H1.48v1.758h2.207zm0 0"/></symbol><symbol overflow="visible" id="I"><path d="M.785-3.922h.62l.02.723c.23-.277.462-.48.684-.605.226-.125.453-.187.683-.187.406 0 .715.133.926.394.206.262.303.653.288 1.172H3.32c.008-.344-.043-.594-.148-.746-.11-.156-.27-.234-.477-.234-.09 0-.183.015-.273.047-.094.036-.188.087-.29.157-.097.074-.198.164-.308.277-.11.114-.226.246-.35.406V0h-.69zm0 0"/></symbol><symbol overflow="visible" id="J"><path d="M4.04-1.992c0 .304-.044.586-.13.836-.086.254-.21.472-.37.656-.16.18-.36.32-.59.422-.23.098-.497.148-.79.148-.28 0-.535-.043-.754-.133-.222-.085-.414-.214-.57-.382-.152-.168-.273-.38-.352-.63-.082-.25-.125-.538-.125-.863 0-.304.042-.582.128-.835.086-.25.21-.465.37-.65.162-.18.36-.32.59-.42.232-.098.497-.15.79-.15.282 0 .535.044.754.134.223.087.414.212.57.383.153.168.274.375.352.625.082.25.125.536.125.86zm-.696.03c0-.24-.028-.452-.078-.632-.055-.183-.133-.336-.23-.453-.1-.12-.22-.215-.364-.273-.14-.063-.297-.094-.473-.094-.204 0-.38.04-.52.117-.145.082-.266.188-.36.32-.09.133-.156.29-.203.46-.043.177-.062.365-.062.556 0 .24.027.452.078.636.054.183.133.332.23.457.098.12.22.21.36.273.14.06.3.09.476.09.202 0 .378-.04.52-.12.143-.08.264-.185.358-.317.09-.134.156-.287.203-.466.044-.176.064-.36.064-.555zm0 0"/></symbol><symbol overflow="visible" id="K"><path d="M3.938-2.168c0 .098 0 .176-.004.242l-.012.184H1.168c0 .402.113.71.336.922.223.215.547.324.97.324.112 0 .23-.004.342-.012.114-.012.227-.023.332-.04.106-.014.21-.03.305-.054.098-.02.192-.04.274-.062v.56c-.184.05-.395.092-.625.127-.235.032-.477.047-.727.047-.336 0-.625-.047-.867-.136-.242-.09-.442-.223-.594-.395C.758-.638.64-.85.57-1.103c-.074-.25-.113-.535-.113-.85 0-.278.04-.54.12-.782.08-.246.196-.465.345-.65.152-.186.34-.335.562-.444.223-.11.473-.164.754-.164.274 0 .516.043.727.13.21.085.387.206.535.362.145.16.25.352.328.578.074.223.11.477.11.754zm-.708-.098c.008-.175-.007-.336-.05-.476-.043-.145-.106-.27-.196-.375-.086-.106-.195-.188-.324-.242-.13-.058-.28-.09-.453-.09-.148 0-.285.028-.406.087-.12.058-.226.136-.316.242-.09.104-.16.23-.214.374-.055.144-.09.305-.102.48zm0 0"/></symbol><symbol overflow="visible" id="L"><path d="M.426-1.88c0-.28.035-.546.113-.8.073-.254.187-.476.343-.664.152-.19.35-.344.594-.457.242-.114.53-.17.867-.17.133 0 .265.013.394.033.13.02.27.054.414.097l.602-.152v5.594H3.07V.122l.035-.84c-.37.527-.808.788-1.32.788-.23 0-.43-.047-.597-.14C1.02-.164.875-.297.766-.47c-.114-.17-.2-.378-.258-.616C.453-1.324.426-1.59.426-1.88zm.695-.042c0 .22.017.414.052.59.03.176.078.324.148.44.067.122.15.216.25.283.098.067.215.098.352.098.172 0 .35-.078.547-.23.19-.153.39-.383.6-.684v-1.82c-.105-.05-.222-.09-.35-.12-.134-.032-.275-.048-.423-.048-.383 0-.676.125-.875.38-.2.253-.3.624-.3 1.112zm0 0"/></symbol><symbol overflow="visible" id="M"><path d="M3.777-5.52L1.097.84H.45l2.68-6.36zm0 0"/></symbol><symbol overflow="visible" id="N"><path d="M3.73-1.07c0 .136-.023.26-.07.37-.047.11-.11.208-.19.294-.083.082-.177.156-.283.215-.105.057-.218.108-.343.147-.12.04-.242.066-.37.086-.13.02-.255.027-.376.027-.266 0-.512-.01-.73-.035C1.144.012.925-.027.71-.078v-.625c.23.066.458.113.685.148.226.035.453.05.675.05.325 0 .567-.042.723-.132.156-.09.234-.215.234-.38 0-.07-.01-.13-.035-.186-.027-.06-.07-.11-.137-.164-.066-.05-.167-.102-.3-.156-.137-.055-.325-.118-.563-.188-.176-.052-.34-.11-.492-.18-.148-.067-.277-.145-.387-.235-.11-.09-.195-.2-.258-.32-.062-.12-.093-.266-.093-.434 0-.108.027-.23.074-.358.05-.13.14-.25.262-.364.12-.113.29-.203.496-.28.207-.075.468-.11.78-.11.153 0 .325.008.513.023.187.02.383.048.586.09v.607c-.215-.05-.418-.09-.606-.118-.19-.024-.36-.036-.5-.036-.168 0-.312.012-.43.04-.113.027-.207.062-.28.105-.07.046-.122.1-.153.163-.03.058-.047.125-.047.195s.012.133.043.192c.027.058.078.113.148.167.075.05.18.106.313.157.134.054.306.113.52.176.23.066.426.136.586.214.16.075.29.157.387.246.098.09.172.196.21.31.044.112.067.245.067.39zm0 0"/></symbol><symbol overflow="visible" id="O"><path d="M4.36 0H3.6l-.356-1.113H1.12L.763 0H.04l1.694-5.105h.954zM3.046-1.734l-.863-2.73-.864 2.73zm0 0"/></symbol><symbol overflow="visible" id="P"><path d="M4.383-5.105L2.648 0H1.71L.017-5.105H.8l1.102 3.44.313 1.01.32-1.01 1.106-3.44zm0 0"/></symbol><symbol overflow="visible" id="Q"><path d="M3.93-4.23c-.192-.102-.387-.18-.586-.24-.2-.053-.418-.08-.656-.08-.27 0-.512.046-.723.144-.21.097-.387.234-.535.406-.145.176-.254.39-.328.637-.08.246-.118.52-.118.82 0 .313.032.594.094.84.063.246.16.457.293.63.134.17.302.303.513.393.207.09.453.137.742.137.05 0 .102-.004.16-.008.06-.005.113-.012.172-.02l.168-.035c.05-.012.098-.028.14-.043v-1.625H2.224v-.575h1.73v2.61c-.105.05-.22.093-.336.133-.12.04-.242.07-.367.097-.12.028-.246.047-.367.06-.12.01-.242.018-.356.018-.347 0-.664-.054-.94-.164-.282-.11-.52-.273-.72-.484-.195-.215-.344-.485-.453-.805-.105-.32-.156-.69-.156-1.113 0-.418.058-.793.176-1.13.117-.33.28-.608.496-.843.21-.23.465-.405.765-.522.297-.12.625-.184.985-.184.23 0 .445.02.656.06.207.042.402.104.594.194zm0 0"/></symbol><symbol overflow="visible" id="R"><path d="M3.895 0H.687v-.633H2V-4.36l-1.223.665-.25-.578 1.625-.856h.602v4.497h1.14zm0 0"/></symbol><symbol overflow="visible" id="S"><path d="M3.91-4.473L1.77 0H.992l2.223-4.473H.457v-.632H3.91zm0 0"/></symbol><symbol overflow="visible" id="T"><path d="M4.19-1.13h-.87V0h-.695v-1.13H.168v-.597l2.176-3.378h.976v3.378h.87zM2.626-4.45L.848-1.726h1.777zm0 0"/></symbol><symbol overflow="visible" id="U"><path d="M3.938 0H.574v-.61l1.32-1.312c.215-.215.39-.398.528-.555.137-.156.242-.296.316-.43.075-.128.125-.25.153-.363.028-.113.04-.238.04-.37 0-.126-.016-.243-.05-.36-.036-.113-.087-.21-.157-.297-.07-.086-.16-.152-.274-.203-.114-.05-.247-.074-.403-.074-.215 0-.414.047-.59.144-.176.098-.34.223-.488.375l-.376-.45c.19-.202.414-.366.664-.487.254-.12.547-.184.88-.184.225 0 .432.035.62.102.183.066.344.164.48.293.137.128.24.284.317.468.074.183.11.394.11.625 0 .195-.028.374-.08.542-.05.168-.132.333-.233.497-.106.168-.243.34-.4.515-.16.176-.35.37-.57.582l-.925.902h2.48zm0 0"/></symbol><symbol overflow="visible" id="V"><path d="M4.207 0h-.68l-.1-3.184-.044-1.222-.238.71-.754 2.032h-.48l-.72-1.953-.237-.79-.015 1.278L.848 0H.19l.25-5.105h.826l.687 1.92.223.65.215-.65.723-1.92h.848zm0 0"/></symbol><symbol overflow="visible" id="W"><path d="M1.848-4.52H.672v-.585h3.055v.585H2.55v3.926h1.177V0H.672v-.594h1.176zm0 0"/></symbol><symbol overflow="visible" id="X"><path d="M3.938 0H3.03L1.544-3.184l-.43-1.023V0H.465v-5.105h.894L2.776-2.09 3.29-.922v-4.183h.647zm0 0"/></symbol><symbol overflow="visible" id="Y"><path d="M4-1.617c0 .234-.043.453-.125.66-.086.207-.207.387-.363.535-.157.152-.344.274-.567.36-.218.09-.46.132-.73.132-.28 0-.53-.047-.746-.133-.216-.09-.4-.23-.544-.414C.78-.664.668-.897.594-1.184.52-1.47.48-1.804.48-2.19c0-.263.016-.513.05-.76.036-.245.09-.476.17-.69.077-.215.183-.415.312-.594.13-.18.293-.336.488-.46.19-.13.422-.232.684-.306.26-.07.566-.105.914-.105h.504v.593h-.547c-.305 0-.57.035-.793.11-.223.074-.41.175-.563.308-.153.133-.266.293-.348.48-.082.188-.133.4-.153.63l-.016.16c.164-.098.355-.176.566-.23.215-.06.45-.09.7-.09.257 0 .484.04.675.113.195.073.36.178.484.31.128.138.226.298.292.486.067.187.098.394.098.617zm-.71.043c0-.156-.02-.297-.056-.426-.04-.125-.097-.23-.18-.32-.08-.086-.183-.153-.304-.203-.125-.047-.273-.07-.445-.07-.098 0-.2.007-.3.027-.103.02-.2.043-.302.074-.098.035-.187.07-.277.113-.09.044-.168.087-.242.134 0 .336.023.617.07.84.047.226.117.406.207.543.095.136.208.23.345.29.136.057.293.085.468.085.15 0 .286-.024.407-.075.125-.046.234-.117.32-.21.09-.094.164-.207.21-.344.052-.133.08-.285.08-.457zm0 0"/></symbol><symbol overflow="visible" id="Z"><path d="M3.84-1.55c0 .222-.047.433-.137.628-.09.2-.226.37-.41.516-.184.148-.41.265-.688.35-.277.083-.597.126-.964.126-.202 0-.386-.008-.546-.02C.934.04.78.02.64 0v-.61c.16.028.333.05.512.067.18.016.364.023.55.023.255 0 .474-.023.657-.066.18-.047.328-.113.44-.2.114-.085.2-.19.25-.312.052-.12.08-.26.08-.414 0-.14-.032-.26-.095-.367-.062-.104-.152-.19-.262-.26-.113-.07-.25-.126-.406-.157-.16-.035-.332-.055-.52-.055h-.58v-.558h.588c.153 0 .293-.02.418-.06.13-.042.235-.1.33-.175.088-.074.155-.167.202-.277.05-.113.074-.238.074-.38 0-.272-.083-.47-.25-.596-.17-.125-.41-.188-.735-.188-.172 0-.348.016-.532.05-.183.036-.38.087-.586.153v-.594c.09-.03.184-.058.285-.085.098-.024.2-.043.297-.063.1-.016.202-.027.3-.04.098-.007.195-.01.285-.01.27 0 .508.027.715.09.207.058.38.14.516.25.136.108.242.24.312.397.07.157.106.333.106.528 0 .293-.074.535-.227.734-.148.2-.35.356-.613.473.133.02.262.062.394.125.13.062.243.14.344.242.106.098.188.21.25.344.067.133.098.28.098.44zm0 0"/></symbol><symbol overflow="visible" id="aa"><path d="M4.055-2.55c0 .39-.04.745-.117 1.066-.08.324-.196.6-.356.828-.16.23-.355.41-.59.54-.238.124-.515.186-.832.186-.273 0-.523-.05-.746-.156C1.19-.188 1-.344.84-.56.68-.772.56-1.042.473-1.374c-.086-.332-.13-.723-.13-1.176 0-.39.04-.747.118-1.07.083-.325.2-.6.36-.833.157-.23.352-.406.59-.53.238-.13.512-.193.828-.193.274 0 .524.05.746.153.223.105.414.265.575.476.16.215.28.488.366.82.086.332.13.723.13 1.176zm-.688.023c0-.09-.004-.176-.008-.262l-.024-.257-2.16 1.606c.04.135.09.26.148.374.06.113.133.214.215.293.085.082.183.148.288.195.11.043.234.066.37.066.177 0 .34-.043.482-.13.144-.085.27-.213.37-.38.102-.17.18-.38.235-.634.055-.25.082-.54.082-.87zM1.03-2.574v.242c.005.082.01.16.017.234l2.16-1.597c-.04-.133-.09-.254-.148-.364-.06-.108-.134-.202-.216-.284-.082-.078-.18-.14-.285-.183-.107-.043-.228-.067-.36-.067-.177 0-.34.043-.48.13-.146.085-.27.214-.372.386-.102.168-.18.38-.235.633-.054.25-.082.54-.082.87zm0 0"/></symbol><symbol overflow="visible" id="ab"><path d="M4.305 0h-.88l-1.24-2.063L.936 0H.07l1.7-2.61L.207-5.104h.824l1.17 1.92 1.175-1.92h.8L2.61-2.64zm0 0"/></symbol><symbol overflow="visible" id="ac"><path d="M3.91-2.84c0 .496-.058.926-.18 1.285-.12.356-.296.65-.53.883-.235.23-.524.4-.872.508-.348.11-.746.164-1.2.164H.704v-.594h.473c.336 0 .625-.035.87-.1.247-.068.45-.17.61-.298.164-.133.29-.293.375-.485.087-.187.142-.402.16-.644l.017-.16c-.164.096-.352.17-.566.233-.214.06-.445.086-.695.086-.258 0-.484-.04-.68-.114-.195-.074-.36-.18-.484-.317-.128-.137-.225-.297-.292-.485C.422-3.06.39-3.262.39-3.48c0-.24.044-.458.13-.665.085-.207.207-.386.363-.535.152-.152.34-.273.554-.363.215-.09.454-.133.715-.133.254 0 .49.043.7.125.214.08.402.218.558.402.156.187.277.43.367.726.09.297.133.656.133 1.082zM2.12-4.617c-.143 0-.28.023-.4.07-.126.05-.236.12-.322.21-.09.095-.164.208-.214.345-.05.137-.08.29-.08.465 0 .16.02.3.06.425.035.125.094.23.172.32.082.087.184.153.31.2.124.047.272.07.444.07.098 0 .195-.008.3-.027.102-.02.204-.042.297-.073.098-.032.192-.067.282-.11.09-.043.167-.086.237-.132 0-.336-.023-.618-.074-.84-.05-.227-.12-.407-.215-.547-.094-.137-.207-.23-.34-.29-.137-.058-.29-.085-.457-.085zm0 0"/></symbol><clipPath id="a"><path d="M55 155h590v32H55zm0 0"/></clipPath></defs><path fill="#F2F2F2" d="M0 0h685v273H0z"/><path d="M55 233h600V33H55zm0 0" fill="#FFF"/><path d="M55 155.848v77.35h589v-47.034h-20v-.016h-10v-.01h-10v-.02h-11v.097h-10v-.047h-10v-.027h-10v.005h-10v-.05h-10v-.044h-11v-.01h-10v-.013h-10v-.004h-10v-.01h-10v.003h-10v-.094h-11v-.047h-10v-.03h-10v-.697h-10v-.718h-10v.043h-10v.043h-11v.047h-10v.04h-10v.045h-10v.055h-10v.074h-10v.07h-11v-.175h-10v-.03h-10v-.134h-10v-.09h-10v-.09h-10v-.11h-11v-.128h-10v.02h-10v.074h-10v.062h-10v-.03h-10v.007h-11v.01h-10v-.213h-10v-.172h-10v-.176h-10v-.535h-10v-.348h-11v-.38h-10v-.437h-10v-.813h-10v-.906h-10v-.984h-10v-1.227h-11v-1.81H95v-2.823H85v-4.18H75v-5.632H65v-7.75zm0 0" fill="#7648EC" fill-opacity=".627"/><g clip-path="url(#a)"><path d="M55 156.047h10v7.754h10v5.63h10v4.18h10v2.824h10v1.808h11v1.23h10v.98h10v.91h10v.81h10v.437h10v.382h11v.344h10v.535h10v.177h10v.172h10v.214h10v-.012h11v-.008h10v.035h10v-.063h10v-.075h10v-.02h10v.126h11v.11h10v.09h10v.09h10v.132h10v.03h10v.177h11v-.07h10v-.075h10v-.054h10v-.047h10v-.034h10v-.05h11v-.044h10v-.043h10v.718h10v.7h10v.026h10v.047h11v.095h10v-.004h10v.013h10v.004h10v.01h10v.013h11v.043h10v.05h10v-.003h10v.027h10v.05h10v-.1h11v.02h10v.01h10v.016h10v.004h10" fill="none" stroke-linecap="round" stroke-linejoin="round" stroke="#4D18E4" stroke-miterlimit="10"/></g><path d="M65 31v2M65 233v2" fill="none" stroke-width=".4" stroke="#8F8F8F" stroke-opacity=".75" stroke-miterlimit="10"/><path d="M65 234V32" fill="none" stroke-width=".4" stroke="#8F8F8F" stroke-opacity=".75" stroke-dasharray="1,1" stroke-miterlimit="10"/><path d="M75 31v2M75 233v2" fill="none" stroke-width=".4" stroke="#8F8F8F" stroke-opacity=".75" stroke-miterlimit="10"/><path d="M75 234V32" fill="none" stroke-width=".4" stroke="#8F8F8F" stroke-opacity=".75" stroke-dasharray="1,1" stroke-miterlimit="10"/><path d="M85 31v2M85 233v2" fill="none" stroke-width=".4" stroke="#8F8F8F" stroke-opacity=".75" stroke-miterlimit="10"/><path d="M85 234V32" fill="none" stroke-width=".4" stroke="#8F8F8F" stroke-opacity=".75" stroke-dasharray="1,1" stroke-miterlimit="10"/><path d="M95 31v2M95 233v2" fill="none" stroke-width=".4" stroke="#8F8F8F" stroke-opacity=".75" stroke-miterlimit="10"/><path d="M95 234V32" fill="none" stroke-width=".4" stroke="#8F8F8F" stroke-opacity=".75" stroke-dasharray="1,1" stroke-miterlimit="10"/><path d="M116 31v2M116 233v2" fill="none" stroke-width=".4" stroke="#8F8F8F" stroke-opacity=".75" stroke-miterlimit="10"/><path d="M116 234V32" fill="none" stroke-width=".4" stroke="#8F8F8F" stroke-opacity=".75" stroke-dasharray="1,1" stroke-miterlimit="10"/><path d="M126 31v2M126 233v2" fill="none" stroke-width=".4" stroke="#8F8F8F" stroke-opacity=".75" stroke-miterlimit="10"/><path d="M126 234V32" fill="none" stroke-width=".4" stroke="#8F8F8F" stroke-opacity=".75" stroke-dasharray="1,1" stroke-miterlimit="10"/><path d="M136 31v2M136 233v2" fill="none" stroke-width=".4" stroke="#8F8F8F" stroke-opacity=".75" stroke-miterlimit="10"/><path d="M136 234V32" fill="none" stroke-width=".4" stroke="#8F8F8F" stroke-opacity=".75" stroke-dasharray="1,1" stroke-miterlimit="10"/><path d="M146 31v2M146 233v2" fill="none" stroke-width=".4" stroke="#8F8F8F" stroke-opacity=".75" stroke-miterlimit="10"/><path d="M146 234V32" fill="none" stroke-width=".4" stroke="#8F8F8F" stroke-opacity=".75" stroke-dasharray="1,1" stroke-miterlimit="10"/><path d="M166 31v2M166 233v2" fill="none" stroke-width=".4" stroke="#8F8F8F" stroke-opacity=".75" stroke-miterlimit="10"/><path d="M166 234V32" fill="none" stroke-width=".4" stroke="#8F8F8F" stroke-opacity=".75" stroke-dasharray="1,1" stroke-miterlimit="10"/><path d="M177 31v2M177 233v2" fill="none" stroke-width=".4" stroke="#8F8F8F" stroke-opacity=".75" stroke-miterlimit="10"/><path d="M177 234V32" fill="none" stroke-width=".4" stroke="#8F8F8F" stroke-opacity=".75" stroke-dasharray="1,1" stroke-miterlimit="10"/><path d="M187 31v2M187 233v2" fill="none" stroke-width=".4" stroke="#8F8F8F" stroke-opacity=".75" stroke-miterlimit="10"/><path d="M187 234V32" fill="none" stroke-width=".4" stroke="#8F8F8F" stroke-opacity=".75" stroke-dasharray="1,1" stroke-miterlimit="10"/><path d="M197 31v2M197 233v2" fill="none" stroke-width=".4" stroke="#8F8F8F" stroke-opacity=".75" stroke-miterlimit="10"/><path d="M197 234V32" fill="none" stroke-width=".4" stroke="#8F8F8F" stroke-opacity=".75" stroke-dasharray="1,1" stroke-miterlimit="10"/><path d="M217 31v2M217 233v2" fill="none" stroke-width=".4" stroke="#8F8F8F" stroke-opacity=".75" stroke-miterlimit="10"/><path d="M217 234V32" fill="none" stroke-width=".4" stroke="#8F8F8F" stroke-opacity=".75" stroke-dasharray="1,1" stroke-miterlimit="10"/><path d="M227 31v2M227 233v2" fill="none" stroke-width=".4" stroke="#8F8F8F" stroke-opacity=".75" stroke-miterlimit="10"/><path d="M227 234V32" fill="none" stroke-width=".4" stroke="#8F8F8F" stroke-opacity=".75" stroke-dasharray="1,1" stroke-miterlimit="10"/><path d="M238 31v2M238 233v2" fill="none" stroke-width=".4" stroke="#8F8F8F" stroke-opacity=".75" stroke-miterlimit="10"/><path d="M238 234V32" fill="none" stroke-width=".4" stroke="#8F8F8F" stroke-opacity=".75" stroke-dasharray="1,1" stroke-miterlimit="10"/><path d="M248 31v2M248 233v2" fill="none" stroke-width=".4" stroke="#8F8F8F" stroke-opacity=".75" stroke-miterlimit="10"/><path d="M248 234V32" fill="none" stroke-width=".4" stroke="#8F8F8F" stroke-opacity=".75" stroke-dasharray="1,1" stroke-miterlimit="10"/><path d="M268 31v2M268 233v2" fill="none" stroke-width=".4" stroke="#8F8F8F" stroke-opacity=".75" stroke-miterlimit="10"/><path d="M268 234V32" fill="none" stroke-width=".4" stroke="#8F8F8F" stroke-opacity=".75" stroke-dasharray="1,1" stroke-miterlimit="10"/><path d="M278 31v2M278 233v2" fill="none" stroke-width=".4" stroke="#8F8F8F" stroke-opacity=".75" stroke-miterlimit="10"/><path d="M278 234V32" fill="none" stroke-width=".4" stroke="#8F8F8F" stroke-opacity=".75" stroke-dasharray="1,1" stroke-miterlimit="10"/><path d="M288 31v2M288 233v2" fill="none" stroke-width=".4" stroke="#8F8F8F" stroke-opacity=".75" stroke-miterlimit="10"/><path d="M288 234V32" fill="none" stroke-width=".4" stroke="#8F8F8F" stroke-opacity=".75" stroke-dasharray="1,1" stroke-miterlimit="10"/><path d="M299 31v2M299 233v2" fill="none" stroke-width=".4" stroke="#8F8F8F" stroke-opacity=".75" stroke-miterlimit="10"/><path d="M299 234V32" fill="none" stroke-width=".4" stroke="#8F8F8F" stroke-opacity=".75" stroke-dasharray="1,1" stroke-miterlimit="10"/><path d="M319 31v2M319 233v2" fill="none" stroke-width=".4" stroke="#8F8F8F" stroke-opacity=".75" stroke-miterlimit="10"/><path d="M319 234V32" fill="none" stroke-width=".4" stroke="#8F8F8F" stroke-opacity=".75" stroke-dasharray="1,1" stroke-miterlimit="10"/><path d="M329 31v2M329 233v2" fill="none" stroke-width=".4" stroke="#8F8F8F" stroke-opacity=".75" stroke-miterlimit="10"/><path d="M329 234V32" fill="none" stroke-width=".4" stroke="#8F8F8F" stroke-opacity=".75" stroke-dasharray="1,1" stroke-miterlimit="10"/><path d="M339 31v2M339 233v2" fill="none" stroke-width=".4" stroke="#8F8F8F" stroke-opacity=".75" stroke-miterlimit="10"/><path d="M339 234V32" fill="none" stroke-width=".4" stroke="#8F8F8F" stroke-opacity=".75" stroke-dasharray="1,1" stroke-miterlimit="10"/><path d="M349 31v2M349 233v2" fill="none" stroke-width=".4" stroke="#8F8F8F" stroke-opacity=".75" stroke-miterlimit="10"/><path d="M349 234V32" fill="none" stroke-width=".4" stroke="#8F8F8F" stroke-opacity=".75" stroke-dasharray="1,1" stroke-miterlimit="10"/><path d="M370 31v2M370 233v2" fill="none" stroke-width=".4" stroke="#8F8F8F" stroke-opacity=".75" stroke-miterlimit="10"/><path d="M370 234V32" fill="none" stroke-width=".4" stroke="#8F8F8F" stroke-opacity=".75" stroke-dasharray="1,1" stroke-miterlimit="10"/><path d="M380 31v2M380 233v2" fill="none" stroke-width=".4" stroke="#8F8F8F" stroke-opacity=".75" stroke-miterlimit="10"/><path d="M380 234V32" fill="none" stroke-width=".4" stroke="#8F8F8F" stroke-opacity=".75" stroke-dasharray="1,1" stroke-miterlimit="10"/><path d="M390 31v2M390 233v2" fill="none" stroke-width=".4" stroke="#8F8F8F" stroke-opacity=".75" stroke-miterlimit="10"/><path d="M390 234V32" fill="none" stroke-width=".4" stroke="#8F8F8F" stroke-opacity=".75" stroke-dasharray="1,1" stroke-miterlimit="10"/><path d="M400 31v2M400 233v2" fill="none" stroke-width=".4" stroke="#8F8F8F" stroke-opacity=".75" stroke-miterlimit="10"/><path d="M400 234V32" fill="none" stroke-width=".4" stroke="#8F8F8F" stroke-opacity=".75" stroke-dasharray="1,1" stroke-miterlimit="10"/><path d="M421 31v2M421 233v2" fill="none" stroke-width=".4" stroke="#8F8F8F" stroke-opacity=".75" stroke-miterlimit="10"/><path d="M421 234V32" fill="none" stroke-width=".4" stroke="#8F8F8F" stroke-opacity=".75" stroke-dasharray="1,1" stroke-miterlimit="10"/><path d="M431 31v2M431 233v2" fill="none" stroke-width=".4" stroke="#8F8F8F" stroke-opacity=".75" stroke-miterlimit="10"/><path d="M431 234V32" fill="none" stroke-width=".4" stroke="#8F8F8F" stroke-opacity=".75" stroke-dasharray="1,1" stroke-miterlimit="10"/><path d="M441 31v2M441 233v2" fill="none" stroke-width=".4" stroke="#8F8F8F" stroke-opacity=".75" stroke-miterlimit="10"/><path d="M441 234V32" fill="none" stroke-width=".4" stroke="#8F8F8F" stroke-opacity=".75" stroke-dasharray="1,1" stroke-miterlimit="10"/><path d="M451 31v2M451 233v2" fill="none" stroke-width=".4" stroke="#8F8F8F" stroke-opacity=".75" stroke-miterlimit="10"/><path d="M451 234V32" fill="none" stroke-width=".4" stroke="#8F8F8F" stroke-opacity=".75" stroke-dasharray="1,1" stroke-miterlimit="10"/><path d="M471 31v2M471 233v2" fill="none" stroke-width=".4" stroke="#8F8F8F" stroke-opacity=".75" stroke-miterlimit="10"/><path d="M471 234V32" fill="none" stroke-width=".4" stroke="#8F8F8F" stroke-opacity=".75" stroke-dasharray="1,1" stroke-miterlimit="10"/><path d="M482 31v2M482 233v2" fill="none" stroke-width=".4" stroke="#8F8F8F" stroke-opacity=".75" stroke-miterlimit="10"/><path d="M482 234V32" fill="none" stroke-width=".4" stroke="#8F8F8F" stroke-opacity=".75" stroke-dasharray="1,1" stroke-miterlimit="10"/><path d="M492 31v2M492 233v2" fill="none" stroke-width=".4" stroke="#8F8F8F" stroke-opacity=".75" stroke-miterlimit="10"/><path d="M492 234V32" fill="none" stroke-width=".4" stroke="#8F8F8F" stroke-opacity=".75" stroke-dasharray="1,1" stroke-miterlimit="10"/><path d="M502 31v2M502 233v2" fill="none" stroke-width=".4" stroke="#8F8F8F" stroke-opacity=".75" stroke-miterlimit="10"/><path d="M502 234V32" fill="none" stroke-width=".4" stroke="#8F8F8F" stroke-opacity=".75" stroke-dasharray="1,1" stroke-miterlimit="10"/><path d="M522 31v2M522 233v2" fill="none" stroke-width=".4" stroke="#8F8F8F" stroke-opacity=".75" stroke-miterlimit="10"/><path d="M522 234V32" fill="none" stroke-width=".4" stroke="#8F8F8F" stroke-opacity=".75" stroke-dasharray="1,1" stroke-miterlimit="10"/><path d="M532 31v2M532 233v2" fill="none" stroke-width=".4" stroke="#8F8F8F" stroke-opacity=".75" stroke-miterlimit="10"/><path d="M532 234V32" fill="none" stroke-width=".4" stroke="#8F8F8F" stroke-opacity=".75" stroke-dasharray="1,1" stroke-miterlimit="10"/><path d="M543 31v2M543 233v2" fill="none" stroke-width=".4" stroke="#8F8F8F" stroke-opacity=".75" stroke-miterlimit="10"/><path d="M543 234V32" fill="none" stroke-width=".4" stroke="#8F8F8F" stroke-opacity=".75" stroke-dasharray="1,1" stroke-miterlimit="10"/><path d="M553 31v2M553 233v2" fill="none" stroke-width=".4" stroke="#8F8F8F" stroke-opacity=".75" stroke-miterlimit="10"/><path d="M553 234V32" fill="none" stroke-width=".4" stroke="#8F8F8F" stroke-opacity=".75" stroke-dasharray="1,1" stroke-miterlimit="10"/><path d="M573 31v2M573 233v2" fill="none" stroke-width=".4" stroke="#8F8F8F" stroke-opacity=".75" stroke-miterlimit="10"/><path d="M573 234V32" fill="none" stroke-width=".4" stroke="#8F8F8F" stroke-opacity=".75" stroke-dasharray="1,1" stroke-miterlimit="10"/><path d="M583 31v2M583 233v2" fill="none" stroke-width=".4" stroke="#8F8F8F" stroke-opacity=".75" stroke-miterlimit="10"/><path d="M583 234V32" fill="none" stroke-width=".4" stroke="#8F8F8F" stroke-opacity=".75" stroke-dasharray="1,1" stroke-miterlimit="10"/><path d="M593 31v2M593 233v2" fill="none" stroke-width=".4" stroke="#8F8F8F" stroke-opacity=".75" stroke-miterlimit="10"/><path d="M593 234V32" fill="none" stroke-width=".4" stroke="#8F8F8F" stroke-opacity=".75" stroke-dasharray="1,1" stroke-miterlimit="10"/><path d="M604 31v2M604 233v2" fill="none" stroke-width=".4" stroke="#8F8F8F" stroke-opacity=".75" stroke-miterlimit="10"/><path d="M604 234V32" fill="none" stroke-width=".4" stroke="#8F8F8F" stroke-opacity=".75" stroke-dasharray="1,1" stroke-miterlimit="10"/><path d="M624 31v2M624 233v2" fill="none" stroke-width=".4" stroke="#8F8F8F" stroke-opacity=".75" stroke-miterlimit="10"/><path d="M624 234V32" fill="none" stroke-width=".4" stroke="#8F8F8F" stroke-opacity=".75" stroke-dasharray="1,1" stroke-miterlimit="10"/><path d="M634 31v2M634 233v2" fill="none" stroke-width=".4" stroke="#8F8F8F" stroke-opacity=".75" stroke-miterlimit="10"/><path d="M634 234V32" fill="none" stroke-width=".4" stroke="#8F8F8F" stroke-opacity=".75" stroke-dasharray="1,1" stroke-miterlimit="10"/><path d="M644 31v2M644 233v2" fill="none" stroke-width=".4" stroke="#8F8F8F" stroke-opacity=".75" stroke-miterlimit="10"/><path d="M644 234V32" fill="none" stroke-width=".4" stroke="#8F8F8F" stroke-opacity=".75" stroke-dasharray="1,1" stroke-miterlimit="10"/><path d="M55 31v2M55 233v3" fill="none" stroke-width=".6" stroke="#DE4F4F" stroke-opacity=".6" stroke-miterlimit="10"/><path d="M55 236V31" fill="none" stroke-width=".6" stroke="#DE4F4F" stroke-opacity=".6" stroke-dasharray="1,1" stroke-miterlimit="10"/><path d="M105 31v2M105 233v3" fill="none" stroke-width=".6" stroke="#DE4F4F" stroke-opacity=".6" stroke-miterlimit="10"/><path d="M105 236V31" fill="none" stroke-width=".6" stroke="#DE4F4F" stroke-opacity=".6" stroke-dasharray="1,1" stroke-miterlimit="10"/><path d="M156 31v2M156 233v3" fill="none" stroke-width=".6" stroke="#DE4F4F" stroke-opacity=".6" stroke-miterlimit="10"/><path d="M156 236V31" fill="none" stroke-width=".6" stroke="#DE4F4F" stroke-opacity=".6" stroke-dasharray="1,1" stroke-miterlimit="10"/><path d="M207 31v2M207 233v3" fill="none" stroke-width=".6" stroke="#DE4F4F" stroke-opacity=".6" stroke-miterlimit="10"/><path d="M207 236V31" fill="none" stroke-width=".6" stroke="#DE4F4F" stroke-opacity=".6" stroke-dasharray="1,1" stroke-miterlimit="10"/><path d="M258 31v2M258 233v3" fill="none" stroke-width=".6" stroke="#DE4F4F" stroke-opacity=".6" stroke-miterlimit="10"/><path d="M258 236V31" fill="none" stroke-width=".6" stroke="#DE4F4F" stroke-opacity=".6" stroke-dasharray="1,1" stroke-miterlimit="10"/><path d="M309 31v2M309 233v3" fill="none" stroke-width=".6" stroke="#DE4F4F" stroke-opacity=".6" stroke-miterlimit="10"/><path d="M309 236V31" fill="none" stroke-width=".6" stroke="#DE4F4F" stroke-opacity=".6" stroke-dasharray="1,1" stroke-miterlimit="10"/><path d="M360 31v2M360 233v3" fill="none" stroke-width=".6" stroke="#DE4F4F" stroke-opacity=".6" stroke-miterlimit="10"/><path d="M360 236V31" fill="none" stroke-width=".6" stroke="#DE4F4F" stroke-opacity=".6" stroke-dasharray="1,1" stroke-miterlimit="10"/><path d="M410 31v2M410 233v3" fill="none" stroke-width=".6" stroke="#DE4F4F" stroke-opacity=".6" stroke-miterlimit="10"/><path d="M410 236V31" fill="none" stroke-width=".6" stroke="#DE4F4F" stroke-opacity=".6" stroke-dasharray="1,1" stroke-miterlimit="10"/><path d="M461 31v2M461 233v3" fill="none" stroke-width=".6" stroke="#DE4F4F" stroke-opacity=".6" stroke-miterlimit="10"/><path d="M461 236V31" fill="none" stroke-width=".6" stroke="#DE4F4F" stroke-opacity=".6" stroke-dasharray="1,1" stroke-miterlimit="10"/><path d="M512 31v2M512 233v3" fill="none" stroke-width=".6" stroke="#DE4F4F" stroke-opacity=".6" stroke-miterlimit="10"/><path d="M512 236V31" fill="none" stroke-width=".6" stroke="#DE4F4F" stroke-opacity=".6" stroke-dasharray="1,1" stroke-miterlimit="10"/><path d="M563 31v2M563 233v3" fill="none" stroke-width=".6" stroke="#DE4F4F" stroke-opacity=".6" stroke-miterlimit="10"/><path d="M563 236V31" fill="none" stroke-width=".6" stroke="#DE4F4F" stroke-opacity=".6" stroke-dasharray="1,1" stroke-miterlimit="10"/><path d="M614 31v2M614 233v3" fill="none" stroke-width=".6" stroke="#DE4F4F" stroke-opacity=".6" stroke-miterlimit="10"/><path d="M614 236V31" fill="none" stroke-width=".6" stroke="#DE4F4F" stroke-opacity=".6" stroke-dasharray="1,1" stroke-miterlimit="10"/><use xlink:href="#b" x="40" y="241.199"/><use xlink:href="#b" x="43.849" y="241.199"/><use xlink:href="#c" x="47.697" y="241.199"/><use xlink:href="#b" x="51.546" y="241.199"/><use xlink:href="#b" x="55.395" y="241.199"/><use xlink:href="#c" x="59.243" y="241.199"/><use xlink:href="#b" x="63.092" y="241.199"/><use xlink:href="#b" x="66.94" y="241.199"/><use xlink:href="#b" x="141" y="241.199"/><use xlink:href="#b" x="144.849" y="241.199"/><use xlink:href="#c" x="148.697" y="241.199"/><use xlink:href="#b" x="152.546" y="241.199"/><use xlink:href="#b" x="156.395" y="241.199"/><use xlink:href="#c" x="160.243" y="241.199"/><use xlink:href="#d" x="164.092" y="241.199"/><use xlink:href="#b" x="167.94" y="241.199"/><use xlink:href="#b" x="243" y="241.199"/><use xlink:href="#b" x="246.849" y="241.199"/><use xlink:href="#c" x="250.697" y="241.199"/><use xlink:href="#b" x="254.546" y="241.199"/><use xlink:href="#b" x="258.395" y="241.199"/><use xlink:href="#c" x="262.243" y="241.199"/><use xlink:href="#e" x="266.092" y="241.199"/><use xlink:href="#b" x="269.94" y="241.199"/><use xlink:href="#b" x="345" y="241.199"/><use xlink:href="#b" x="348.849" y="241.199"/><use xlink:href="#c" x="352.697" y="241.199"/><use xlink:href="#b" x="356.546" y="241.199"/><use xlink:href="#b" x="360.395" y="241.199"/><use xlink:href="#c" x="364.243" y="241.199"/><use xlink:href="#f" x="368.092" y="241.199"/><use xlink:href="#b" x="371.94" y="241.199"/><use xlink:href="#b" x="446" y="241.199"/><use xlink:href="#b" x="449.849" y="241.199"/><use xlink:href="#c" x="453.697" y="241.199"/><use xlink:href="#b" x="457.546" y="241.199"/><use xlink:href="#b" x="461.395" y="241.199"/><use xlink:href="#c" x="465.243" y="241.199"/><use xlink:href="#g" x="469.092" y="241.199"/><use xlink:href="#b" x="472.94" y="241.199"/><use xlink:href="#b" x="548" y="241.199"/><use xlink:href="#b" x="551.849" y="241.199"/><use xlink:href="#c" x="555.697" y="241.199"/><use xlink:href="#b" x="559.546" y="241.199"/><use xlink:href="#b" x="563.395" y="241.199"/><use xlink:href="#c" x="567.243" y="241.199"/><use xlink:href="#h" x="571.092" y="241.199"/><use xlink:href="#b" x="574.94" y="241.199"/><use xlink:href="#i" x="24" y="235.199"/><use xlink:href="#i" x="27.849" y="235.199"/><use xlink:href="#i" x="31.697" y="235.199"/><use xlink:href="#b" x="35.546" y="235.199"/><use xlink:href="#i" x="39.395" y="235.199"/><use xlink:href="#i" x="43.243" y="235.199"/><path d="M53 233h2M655 233h2" fill="none" stroke-width=".6" stroke="#DE4F4F" stroke-opacity=".6" stroke-miterlimit="10"/><path d="M53 233h604" fill="none" stroke-width=".6" stroke="#DE4F4F" stroke-opacity=".6" stroke-dasharray="1,1" stroke-miterlimit="10"/><path d="M53 227.285h2M655 227.285h2" fill="none" stroke-width=".4" stroke="#8F8F8F" stroke-opacity=".75" stroke-miterlimit="10"/><path d="M54 227.285h602" fill="none" stroke-width=".4" stroke="#8F8F8F" stroke-opacity=".75" stroke-dasharray="1,1" stroke-miterlimit="10"/><path d="M53 221.57h2M655 221.57h2" fill="none" stroke-width=".4" stroke="#8F8F8F" stroke-opacity=".75" stroke-miterlimit="10"/><path d="M54 221.57h602" fill="none" stroke-width=".4" stroke="#8F8F8F" stroke-opacity=".75" stroke-dasharray="1,1" stroke-miterlimit="10"/><path d="M53 215.855h2M655 215.855h2" fill="none" stroke-width=".4" stroke="#8F8F8F" stroke-opacity=".75" stroke-miterlimit="10"/><path d="M54 215.855h602" fill="none" stroke-width=".4" stroke="#8F8F8F" stroke-opacity=".75" stroke-dasharray="1,1" stroke-miterlimit="10"/><path d="M53 210.145h2M655 210.145h2" fill="none" stroke-width=".4" stroke="#8F8F8F" stroke-opacity=".75" stroke-miterlimit="10"/><path d="M54 210.145h602" fill="none" stroke-width=".4" stroke="#8F8F8F" stroke-opacity=".75" stroke-dasharray="1,1" stroke-miterlimit="10"/><use xlink:href="#i" x="24" y="206.629"/><use xlink:href="#i" x="27.849" y="206.629"/><use xlink:href="#d" x="31.697" y="206.629"/><use xlink:href="#b" x="35.546" y="206.629"/><use xlink:href="#i" x="39.395" y="206.629"/><use xlink:href="#j" x="43.243" y="206.629"/><path d="M53 204.43h2M655 204.43h2" fill="none" stroke-width=".6" stroke="#DE4F4F" stroke-opacity=".6" stroke-miterlimit="10"/><path d="M53 204.43h604" fill="none" stroke-width=".6" stroke="#DE4F4F" stroke-opacity=".6" stroke-dasharray="1,1" stroke-miterlimit="10"/><path d="M53 198.715h2M655 198.715h2" fill="none" stroke-width=".4" stroke="#8F8F8F" stroke-opacity=".75" stroke-miterlimit="10"/><path d="M54 198.715h602" fill="none" stroke-width=".4" stroke="#8F8F8F" stroke-opacity=".75" stroke-dasharray="1,1" stroke-miterlimit="10"/><path d="M53 193h2M655 193h2" fill="none" stroke-width=".4" stroke="#8F8F8F" stroke-opacity=".75" stroke-miterlimit="10"/><path d="M54 193h602" fill="none" stroke-width=".4" stroke="#8F8F8F" stroke-opacity=".75" stroke-dasharray="1,1" stroke-miterlimit="10"/><path d="M53 187.285h2M655 187.285h2" fill="none" stroke-width=".4" stroke="#8F8F8F" stroke-opacity=".75" stroke-miterlimit="10"/><path d="M54 187.285h602" fill="none" stroke-width=".4" stroke="#8F8F8F" stroke-opacity=".75" stroke-dasharray="1,1" stroke-miterlimit="10"/><path d="M53 181.57h2M655 181.57h2" fill="none" stroke-width=".4" stroke="#8F8F8F" stroke-opacity=".75" stroke-miterlimit="10"/><path d="M54 181.57h602" fill="none" stroke-width=".4" stroke="#8F8F8F" stroke-opacity=".75" stroke-dasharray="1,1" stroke-miterlimit="10"/><use xlink:href="#i" x="24" y="178.055"/><use xlink:href="#i" x="27.849" y="178.055"/><use xlink:href="#e" x="31.697" y="178.055"/><use xlink:href="#b" x="35.546" y="178.055"/><use xlink:href="#i" x="39.395" y="178.055"/><use xlink:href="#j" x="43.243" y="178.055"/><path d="M53 175.855h2M655 175.855h2" fill="none" stroke-width=".6" stroke="#DE4F4F" stroke-opacity=".6" stroke-miterlimit="10"/><path d="M53 175.855h604" fill="none" stroke-width=".6" stroke="#DE4F4F" stroke-opacity=".6" stroke-dasharray="1,1" stroke-miterlimit="10"/><path d="M53 170.145h2M655 170.145h2" fill="none" stroke-width=".4" stroke="#8F8F8F" stroke-opacity=".75" stroke-miterlimit="10"/><path d="M54 170.145h602" fill="none" stroke-width=".4" stroke="#8F8F8F" stroke-opacity=".75" stroke-dasharray="1,1" stroke-miterlimit="10"/><path d="M53 164.43h2M655 164.43h2" fill="none" stroke-width=".4" stroke="#8F8F8F" stroke-opacity=".75" stroke-miterlimit="10"/><path d="M54 164.43h602" fill="none" stroke-width=".4" stroke="#8F8F8F" stroke-opacity=".75" stroke-dasharray="1,1" stroke-miterlimit="10"/><path d="M53 158.715h2M655 158.715h2" fill="none" stroke-width=".4" stroke="#8F8F8F" stroke-opacity=".75" stroke-miterlimit="10"/><path d="M54 158.715h602" fill="none" stroke-width=".4" stroke="#8F8F8F" stroke-opacity=".75" stroke-dasharray="1,1" stroke-miterlimit="10"/><path d="M53 153h2M655 153h2" fill="none" stroke-width=".4" stroke="#8F8F8F" stroke-opacity=".75" stroke-miterlimit="10"/><path d="M54 153h602" fill="none" stroke-width=".4" stroke="#8F8F8F" stroke-opacity=".75" stroke-dasharray="1,1" stroke-miterlimit="10"/><use xlink:href="#i" x="24" y="149.484"/><use xlink:href="#i" x="27.849" y="149.484"/><use xlink:href="#f" x="31.697" y="149.484"/><use xlink:href="#b" x="35.546" y="149.484"/><use xlink:href="#i" x="39.395" y="149.484"/><use xlink:href="#j" x="43.243" y="149.484"/><path d="M53 147.285h2M655 147.285h2" fill="none" stroke-width=".6" stroke="#DE4F4F" stroke-opacity=".6" stroke-miterlimit="10"/><path d="M53 147.285h604" fill="none" stroke-width=".6" stroke="#DE4F4F" stroke-opacity=".6" stroke-dasharray="1,1" stroke-miterlimit="10"/><path d="M53 141.57h2M655 141.57h2" fill="none" stroke-width=".4" stroke="#8F8F8F" stroke-opacity=".75" stroke-miterlimit="10"/><path d="M54 141.57h602" fill="none" stroke-width=".4" stroke="#8F8F8F" stroke-opacity=".75" stroke-dasharray="1,1" stroke-miterlimit="10"/><path d="M53 135.855h2M655 135.855h2" fill="none" stroke-width=".4" stroke="#8F8F8F" stroke-opacity=".75" stroke-miterlimit="10"/><path d="M54 135.855h602" fill="none" stroke-width=".4" stroke="#8F8F8F" stroke-opacity=".75" stroke-dasharray="1,1" stroke-miterlimit="10"/><path d="M53 130.145h2M655 130.145h2" fill="none" stroke-width=".4" stroke="#8F8F8F" stroke-opacity=".75" stroke-miterlimit="10"/><path d="M54 130.145h602" fill="none" stroke-width=".4" stroke="#8F8F8F" stroke-opacity=".75" stroke-dasharray="1,1" stroke-miterlimit="10"/><path d="M53 124.43h2M655 124.43h2" fill="none" stroke-width=".4" stroke="#8F8F8F" stroke-opacity=".75" stroke-miterlimit="10"/><path d="M54 124.43h602" fill="none" stroke-width=".4" stroke="#8F8F8F" stroke-opacity=".75" stroke-dasharray="1,1" stroke-miterlimit="10"/><use xlink:href="#i" x="24" y="120.914"/><use xlink:href="#i" x="27.849" y="120.914"/><use xlink:href="#g" x="31.697" y="120.914"/><use xlink:href="#b" x="35.546" y="120.914"/><use xlink:href="#i" x="39.395" y="120.914"/><use xlink:href="#j" x="43.243" y="120.914"/><path d="M53 118.715h2M655 118.715h2" fill="none" stroke-width=".6" stroke="#DE4F4F" stroke-opacity=".6" stroke-miterlimit="10"/><path d="M53 118.715h604" fill="none" stroke-width=".6" stroke="#DE4F4F" stroke-opacity=".6" stroke-dasharray="1,1" stroke-miterlimit="10"/><path d="M53 113h2M655 113h2" fill="none" stroke-width=".4" stroke="#8F8F8F" stroke-opacity=".75" stroke-miterlimit="10"/><path d="M54 113h602" fill="none" stroke-width=".4" stroke="#8F8F8F" stroke-opacity=".75" stroke-dasharray="1,1" stroke-miterlimit="10"/><path d="M53 107.285h2M655 107.285h2" fill="none" stroke-width=".4" stroke="#8F8F8F" stroke-opacity=".75" stroke-miterlimit="10"/><path d="M54 107.285h602" fill="none" stroke-width=".4" stroke="#8F8F8F" stroke-opacity=".75" stroke-dasharray="1,1" stroke-miterlimit="10"/><path d="M53 101.57h2M655 101.57h2" fill="none" stroke-width=".4" stroke="#8F8F8F" stroke-opacity=".75" stroke-miterlimit="10"/><path d="M54 101.57h602" fill="none" stroke-width=".4" stroke="#8F8F8F" stroke-opacity=".75" stroke-dasharray="1,1" stroke-miterlimit="10"/><path d="M53 95.855h2M655 95.855h2" fill="none" stroke-width=".4" stroke="#8F8F8F" stroke-opacity=".75" stroke-miterlimit="10"/><path d="M54 95.855h602" fill="none" stroke-width=".4" stroke="#8F8F8F" stroke-opacity=".75" stroke-dasharray="1,1" stroke-miterlimit="10"/><g><use xlink:href="#i" x="24" y="92.344"/><use xlink:href="#i" x="27.849" y="92.344"/><use xlink:href="#h" x="31.697" y="92.344"/><use xlink:href="#b" x="35.546" y="92.344"/><use xlink:href="#i" x="39.395" y="92.344"/><use xlink:href="#j" x="43.243" y="92.344"/></g><path d="M53 90.145h2M655 90.145h2" fill="none" stroke-width=".6" stroke="#DE4F4F" stroke-opacity=".6" stroke-miterlimit="10"/><path d="M53 90.145h604" fill="none" stroke-width=".6" stroke="#DE4F4F" stroke-opacity=".6" stroke-dasharray="1,1" stroke-miterlimit="10"/><path d="M53 84.43h2M655 84.43h2" fill="none" stroke-width=".4" stroke="#8F8F8F" stroke-opacity=".75" stroke-miterlimit="10"/><path d="M54 84.43h602" fill="none" stroke-width=".4" stroke="#8F8F8F" stroke-opacity=".75" stroke-dasharray="1,1" stroke-miterlimit="10"/><path d="M53 78.715h2M655 78.715h2" fill="none" stroke-width=".4" stroke="#8F8F8F" stroke-opacity=".75" stroke-miterlimit="10"/><path d="M54 78.715h602" fill="none" stroke-width=".4" stroke="#8F8F8F" stroke-opacity=".75" stroke-dasharray="1,1" stroke-miterlimit="10"/><path d="M53 73h2M655 73h2" fill="none" stroke-width=".4" stroke="#8F8F8F" stroke-opacity=".75" stroke-miterlimit="10"/><path d="M54 73h602" fill="none" stroke-width=".4" stroke="#8F8F8F" stroke-opacity=".75" stroke-dasharray="1,1" stroke-miterlimit="10"/><path d="M53 67.285h2M655 67.285h2" fill="none" stroke-width=".4" stroke="#8F8F8F" stroke-opacity=".75" stroke-miterlimit="10"/><path d="M54 67.285h602" fill="none" stroke-width=".4" stroke="#8F8F8F" stroke-opacity=".75" stroke-dasharray="1,1" stroke-miterlimit="10"/><g><use xlink:href="#i" x="24" y="63.77"/><use xlink:href="#i" x="27.849" y="63.77"/><use xlink:href="#k" x="31.697" y="63.77"/><use xlink:href="#b" x="35.546" y="63.77"/><use xlink:href="#i" x="39.395" y="63.77"/><use xlink:href="#j" x="43.243" y="63.77"/></g><path d="M53 61.57h2M655 61.57h2" fill="none" stroke-width=".6" stroke="#DE4F4F" stroke-opacity=".6" stroke-miterlimit="10"/><path d="M53 61.57h604" fill="none" stroke-width=".6" stroke="#DE4F4F" stroke-opacity=".6" stroke-dasharray="1,1" stroke-miterlimit="10"/><path d="M53 55.855h2M655 55.855h2" fill="none" stroke-width=".4" stroke="#8F8F8F" stroke-opacity=".75" stroke-miterlimit="10"/><path d="M54 55.855h602" fill="none" stroke-width=".4" stroke="#8F8F8F" stroke-opacity=".75" stroke-dasharray="1,1" stroke-miterlimit="10"/><path d="M53 50.145h2M655 50.145h2" fill="none" stroke-width=".4" stroke="#8F8F8F" stroke-opacity=".75" stroke-miterlimit="10"/><path d="M54 50.145h602" fill="none" stroke-width=".4" stroke="#8F8F8F" stroke-opacity=".75" stroke-dasharray="1,1" stroke-miterlimit="10"/><path d="M53 44.43h2M655 44.43h2" fill="none" stroke-width=".4" stroke="#8F8F8F" stroke-opacity=".75" stroke-miterlimit="10"/><path d="M54 44.43h602" fill="none" stroke-width=".4" stroke="#8F8F8F" stroke-opacity=".75" stroke-dasharray="1,1" stroke-miterlimit="10"/><path d="M53 38.715h2M655 38.715h2" fill="none" stroke-width=".4" stroke="#8F8F8F" stroke-opacity=".75" stroke-miterlimit="10"/><path d="M54 38.715h602" fill="none" stroke-width=".4" stroke="#8F8F8F" stroke-opacity=".75" stroke-dasharray="1,1" stroke-miterlimit="10"/><g><use xlink:href="#i" x="24" y="35.199"/><use xlink:href="#i" x="27.849" y="35.199"/><use xlink:href="#l" x="31.697" y="35.199"/><use xlink:href="#b" x="35.546" y="35.199"/><use xlink:href="#i" x="39.395" y="35.199"/><use xlink:href="#j" x="43.243" y="35.199"/></g><path d="M53 33h2M655 33h2" fill="none" stroke-width=".6" stroke="#DE4F4F" stroke-opacity=".6" stroke-miterlimit="10"/><path d="M53 33h604" fill="none" stroke-width=".6" stroke="#DE4F4F" stroke-opacity=".6" stroke-dasharray="1,1" stroke-miterlimit="10"/><g><use xlink:href="#m" x="11.941" y="175"/><use xlink:href="#n" x="11.941" y="170.602"/><use xlink:href="#o" x="11.941" y="166.203"/><use xlink:href="#p" x="11.941" y="161.805"/><use xlink:href="#n" x="11.941" y="157.406"/><use xlink:href="#q" x="11.941" y="153.008"/><use xlink:href="#r" x="11.941" y="148.609"/><use xlink:href="#q" x="11.941" y="144.211"/><use xlink:href="#s" x="11.941" y="139.813"/><use xlink:href="#t" x="11.941" y="135.414"/><use xlink:href="#n" x="11.941" y="131.016"/><use xlink:href="#m" x="11.941" y="126.617"/><use xlink:href="#s" x="11.941" y="122.219"/><use xlink:href="#q" x="11.941" y="117.82"/><use xlink:href="#n" x="11.941" y="113.422"/><use xlink:href="#u" x="11.941" y="109.023"/><use xlink:href="#v" x="11.941" y="104.625"/><use xlink:href="#w" x="11.941" y="100.227"/><use xlink:href="#x" x="11.941" y="95.828"/></g><g><use xlink:href="#y" x="312" y="12.685"/><use xlink:href="#z" x="316.948" y="12.685"/><use xlink:href="#A" x="321.896" y="12.685"/><use xlink:href="#B" x="326.845" y="12.685"/><use xlink:href="#z" x="331.793" y="12.685"/><use xlink:href="#A" x="336.741" y="12.685"/><use xlink:href="#y" x="341.689" y="12.685"/><use xlink:href="#C" x="346.638" y="12.685"/><use xlink:href="#D" x="351.586" y="12.685"/><use xlink:href="#E" x="356.534" y="12.685"/><use xlink:href="#C" x="361.482" y="12.685"/><use xlink:href="#F" x="366.431" y="12.685"/></g><g><use xlink:href="#G" x="16" y="263.941"/><use xlink:href="#G" x="20.398" y="263.941"/><use xlink:href="#H" x="24.797" y="263.941"/><use xlink:href="#I" x="29.195" y="263.941"/><use xlink:href="#I" x="33.594" y="263.941"/><use xlink:href="#J" x="37.992" y="263.941"/><use xlink:href="#I" x="42.391" y="263.941"/></g><path d="M16 257.602v6h6v-6zm0 0" fill="#F2F2F2"/><path d="M16 257.602v6h6v-6zm0 0" fill="#E60073" fill-opacity=".627"/><path d="M16 263.602h6v-6h-6zm0 0" fill="none" stroke="#000" stroke-miterlimit="10"/><g><use xlink:href="#G" x="63" y="263.941"/><use xlink:href="#G" x="67.398" y="263.941"/><use xlink:href="#G" x="71.797" y="263.941"/><use xlink:href="#I" x="76.195" y="263.941"/><use xlink:href="#K" x="80.594" y="263.941"/><use xlink:href="#L" x="84.992" y="263.941"/><use xlink:href="#M" x="89.391" y="263.941"/><use xlink:href="#N" x="93.789" y="263.941"/></g><path d="M63 257.602v6h6v-6zm0 0" fill="#F2F2F2"/><path d="M63 257.602v6h6v-6zm0 0" fill="#7648EC" fill-opacity=".627"/><path d="M63 263.602h6v-6h-6zm0 0" fill="none" stroke="#000" stroke-miterlimit="10"/><g><use xlink:href="#O" x="505" y="263.941"/><use xlink:href="#P" x="509.398" y="263.941"/><use xlink:href="#Q" x="513.797" y="263.941"/><use xlink:href="#G" x="518.195" y="263.941"/><use xlink:href="#G" x="522.594" y="263.941"/><use xlink:href="#R" x="526.992" y="263.941"/><use xlink:href="#S" x="531.391" y="263.941"/><use xlink:href="#T" x="535.789" y="263.941"/><use xlink:href="#R" x="540.188" y="263.941"/><use xlink:href="#U" x="544.586" y="263.941"/></g><g><use xlink:href="#V" x="565" y="263.941"/><use xlink:href="#W" x="569.398" y="263.941"/><use xlink:href="#X" x="573.797" y="263.941"/><use xlink:href="#G" x="578.195" y="263.941"/><use xlink:href="#G" x="582.594" y="263.941"/><use xlink:href="#R" x="586.992" y="263.941"/><use xlink:href="#Y" x="591.391" y="263.941"/><use xlink:href="#Z" x="595.789" y="263.941"/><use xlink:href="#aa" x="600.188" y="263.941"/><use xlink:href="#T" x="604.586" y="263.941"/></g><g><use xlink:href="#V" x="625" y="263.941"/><use xlink:href="#O" x="629.398" y="263.941"/><use xlink:href="#ab" x="633.797" y="263.941"/><use xlink:href="#G" x="638.195" y="263.941"/><use xlink:href="#G" x="642.594" y="263.941"/><use xlink:href="#U" x="646.992" y="263.941"/><use xlink:href="#Y" x="651.391" y="263.941"/><use xlink:href="#ac" x="655.789" y="263.941"/><use xlink:href="#Z" x="660.188" y="263.941"/><use xlink:href="#T" x="664.586" y="263.941"/></g><path d="M51 233h608M55 237V29" fill="none" stroke-width=".6" stroke="#1F1F1F" stroke-miterlimit="10"/><path d="M657 230v6l5-3zm0 0M52 31h6l-3-5zm0 0" fill="#7F1F1F"/></svg>