<svg xmlns="http://www.w3.org/2000/svg" xmlns:xlink="http://www.w3.org/1999/xlink" width="685pt" height="299pt" viewBox="0 0 685 299"><defs><symbol overflow="visible" id="d"><path d="M3.547-2.23c0 .34-.03.652-.102.933-.07.28-.172.524-.312.723-.137.203-.31.36-.516.47-.207.112-.45.166-.726.166-.238 0-.456-.046-.652-.136C1.043-.164.875-.3.734-.488c-.14-.188-.246-.426-.32-.715C.34-1.493.3-1.836.3-2.23c0-.344.036-.657.106-.938.07-.28.172-.523.31-.727.136-.203.31-.36.518-.468.207-.11.45-.164.723-.164.238 0 .457.043.652.132.195.09.367.23.503.418.14.188.246.426.32.715.075.29.114.633.114 1.032zm-.602.02c0-.08 0-.157-.007-.23-.004-.08-.012-.154-.02-.224l-1.89 1.402c.034.117.077.227.132.328.05.102.113.188.188.258.074.074.16.13.254.168.093.04.203.06.324.06.152 0 .293-.036.422-.114.125-.075.234-.184.32-.333.09-.148.16-.332.207-.554.047-.218.07-.472.07-.76zM.902-2.255v.215l.012.204 1.89-1.398c-.03-.118-.074-.223-.128-.317-.05-.098-.114-.18-.188-.25-.074-.067-.156-.122-.25-.16-.093-.04-.2-.06-.312-.06-.156 0-.297.04-.422.114-.13.074-.234.187-.324.336-.09.148-.157.336-.207.554-.047.22-.07.473-.07.762zm0 0"/></symbol><symbol overflow="visible" id="e"><path d="M1.926-3.492c.07 0 .137.012.2.043.062.028.12.067.167.114.047.047.086.106.113.168.03.063.043.13.043.2 0 .073-.013.144-.044.206-.027.063-.066.117-.113.164s-.102.086-.168.114c-.063.027-.13.04-.2.04-.073 0-.14-.013-.202-.04-.063-.028-.12-.067-.168-.114-.047-.047-.086-.1-.114-.164-.026-.062-.038-.133-.038-.207 0-.07.012-.135.04-.198.027-.062.066-.12.113-.168.047-.047.105-.086.168-.113.062-.027.13-.042.203-.042zm0 2.504c.07 0 .137.015.2.043.062.027.12.066.167.113.047.05.086.105.113.168.03.062.043.133.043.203 0 .073-.013.14-.044.202-.027.063-.066.117-.113.164s-.102.086-.168.114c-.063.027-.13.042-.2.042-.073 0-.14-.015-.202-.042-.063-.028-.12-.063-.168-.114-.047-.047-.086-.1-.114-.164-.026-.062-.038-.13-.038-.203 0-.07.012-.138.04-.204.027-.063.066-.117.113-.168.047-.047.105-.086.168-.113.062-.028.13-.043.203-.043zm0 0"/></symbol><symbol overflow="visible" id="f"><path d="M3.406 0H.602v-.555H1.75v-3.257l-1.07.578-.22-.504 1.423-.75h.527v3.933h.996zm0 0"/></symbol><symbol overflow="visible" id="g"><path d="M3.445 0H.505v-.53l1.15-1.15c.193-.187.345-.35.462-.488.12-.137.21-.262.278-.375.066-.113.113-.22.136-.316.025-.1.033-.21.033-.328 0-.11-.016-.21-.043-.312-.032-.098-.075-.184-.137-.258-.063-.078-.14-.137-.238-.18-.098-.042-.215-.066-.356-.066-.188 0-.36.043-.517.13-.152.08-.296.19-.425.327L.52-3.94c.167-.177.363-.322.582-.427.218-.11.476-.16.77-.16.198 0 .378.027.538.086.164.057.305.143.422.256.12.114.21.25.277.41.062.16.097.344.097.547 0 .172-.023.33-.07.477-.043.145-.114.29-.207.434-.09.144-.207.296-.348.45-.14.155-.305.323-.496.51l-.813.79h2.172zm0 0"/></symbol><symbol overflow="visible" id="h"><path d="M3.36-1.355c0 .195-.04.378-.118.55-.082.172-.203.32-.36.45-.16.128-.362.23-.6.304-.243.073-.524.113-.845.113-.18 0-.34-.008-.48-.02C.817.03.684.02.563 0v-.53c.14.022.29.042.445.053.156.016.32.024.484.024.223 0 .414-.02.57-.063.16-.04.29-.097.387-.17.1-.076.175-.166.218-.275.047-.106.07-.228.07-.364 0-.12-.027-.23-.082-.32-.054-.09-.133-.17-.23-.23-.098-.06-.22-.106-.356-.138-.136-.03-.29-.047-.453-.047H1.11v-.487h.515c.133 0 .254-.015.367-.05.11-.036.203-.087.28-.153.08-.066.142-.148.185-.246.043-.098.063-.207.063-.328 0-.24-.075-.414-.22-.524-.144-.11-.36-.164-.644-.164-.148 0-.304.016-.465.043-.16.033-.327.075-.51.134v-.52c.078-.027.16-.05.25-.074.086-.02.172-.04.26-.054.087-.016.177-.024.263-.032.086-.007.168-.01.25-.01.234 0 .445.022.625.073.18.05.328.125.45.223.12.093.214.21.273.347.063.137.095.29.095.46 0 .255-.067.47-.196.646-.134.172-.313.308-.54.41.117.02.23.054.344.11.113.054.215.124.305.21.088.086.16.188.217.305.055.117.082.242.082.387zm0 0"/></symbol><symbol overflow="visible" id="i"><path d="M3.668-.988h-.762V0h-.61v-.988H.15v-.524L2.05-4.47h.856v2.958h.762zm-1.37-2.907L.74-1.512h1.555zm0 0"/></symbol><symbol overflow="visible" id="j"><path d="M3.332-1.43c0 .223-.047.422-.144.606-.094.183-.227.34-.395.47-.168.13-.363.233-.59.307-.23.07-.476.11-.742.11-.065 0-.136-.004-.21-.008L1.023.043C.945.04.875.03.8.023.73.016.665.008.61 0v-.54c.12.028.26.052.42.063.157.016.318.024.482.024.183 0 .343-.024.492-.067.144-.042.27-.105.37-.187.103-.082.18-.176.235-.293.054-.113.085-.242.085-.387 0-.277-.1-.48-.3-.61-.2-.124-.485-.187-.86-.187H.688V-4.47h2.406v.52H1.246v1.255h.39c.216 0 .423.02.626.058.203.04.383.11.543.203.156.098.285.227.382.39.098.165.145.368.145.614zm0 0"/></symbol><symbol overflow="visible" id="l"><path d="M3.633 0h-.817L1.22-1.84V0h-.6v-4.828h.6v2.965L2.757-3.43h.785l-1.61 1.582zm0 0"/></symbol><symbol overflow="visible" id="m"><path d="M3.5-1.414c0 .203-.035.398-.11.578-.074.18-.18.336-.316.47-.136.132-.304.237-.496.31-.19.08-.406.118-.64.118-.247 0-.465-.04-.653-.117-.187-.078-.347-.2-.476-.363-.126-.164-.224-.37-.29-.617-.067-.25-.098-.543-.098-.883 0-.227.012-.45.043-.664.03-.215.078-.414.148-.606.067-.187.157-.36.274-.515.113-.16.254-.293.425-.406.168-.113.368-.202.598-.265.23-.063.496-.094.8-.094h.442v.52h-.48c-.266 0-.496.036-.692.098-.195.063-.363.153-.492.27-.133.117-.234.258-.304.422-.07.164-.118.348-.133.55l-.015.137c.145-.082.31-.152.496-.203.19-.05.396-.074.615-.074.222 0 .42.03.59.098.17.066.312.156.425.273.113.118.2.263.254.427.06.164.086.344.086.54zm-.62.035c0-.136-.017-.257-.052-.37-.03-.11-.086-.203-.156-.277-.07-.078-.16-.137-.266-.18-.11-.043-.238-.063-.39-.063-.086 0-.172.008-.262.024-.09.016-.176.04-.262.066-.086.028-.168.063-.246.098-.078.035-.148.074-.21.117 0 .293.02.54.062.735.04.2.1.355.183.476.08.117.18.203.298.25.117.05.258.078.41.078.13 0 .25-.023.36-.066.105-.04.2-.102.277-.184.078-.082.14-.183.188-.3.042-.118.066-.25.066-.403zm0 0"/></symbol><symbol overflow="visible" id="n"><path d="M3.422-3.914L1.547 0h-.68l1.946-3.914H.397v-.555h3.024zm0 0"/></symbol><symbol overflow="visible" id="o"><path d="M3.445-1.12c0 .186-.04.354-.117.503-.078.148-.183.27-.324.37-.137.102-.3.177-.492.23-.188.052-.395.08-.614.08-.246 0-.46-.028-.644-.083C1.066-.074.91-.152.784-.25.66-.348.567-.465.505-.598.437-.734.406-.878.406-1.043c0-.273.078-.508.23-.707.153-.2.387-.38.708-.54C1.05-2.436.84-2.6.704-2.784c-.134-.18-.2-.387-.2-.62 0-.146.027-.286.086-.42.058-.136.148-.253.27-.36.12-.104.27-.186.45-.25.178-.06.39-.092.635-.092.23 0 .434.023.606.07.177.05.32.12.442.21.117.09.207.204.266.333.058.13.09.273.09.434 0 .26-.075.48-.22.664-.144.183-.35.34-.616.48.133.066.254.137.37.22.114.077.212.167.298.264.082.098.148.207.195.33.047.12.07.252.07.4zm-.707-2.31c0-.203-.07-.355-.215-.453-.14-.1-.34-.148-.597-.148-.258 0-.457.046-.598.143-.14.098-.215.246-.215.442 0 .09.02.172.05.246.036.075.09.145.16.212.072.066.16.133.27.195.106.063.235.13.384.195.257-.12.45-.246.574-.38.126-.127.188-.28.188-.452zM2.8-1.078c0-.082-.015-.164-.042-.246-.028-.078-.074-.156-.15-.235-.07-.077-.163-.155-.28-.23-.117-.077-.27-.16-.453-.24-.152.073-.285.15-.39.225-.106.075-.192.15-.255.223-.066.078-.113.156-.14.238-.028.082-.04.168-.04.262 0 .102.02.19.067.27.043.078.106.144.18.2.078.053.172.096.277.124.11.027.227.04.352.04.12 0 .234-.013.34-.036.11-.028.2-.063.277-.118.078-.05.14-.113.187-.19.047-.08.07-.177.07-.286zm0 0"/></symbol><symbol overflow="visible" id="p"><path d="M3.422-2.484c0 .433-.055.808-.156 1.12-.106.313-.262.57-.465.774-.206.203-.46.352-.76.445C1.733-.047 1.382 0 .987 0h-.37v-.52h.41c.292 0 .55-.03.76-.09.216-.058.396-.144.536-.26.145-.114.254-.255.328-.42.075-.163.12-.355.14-.565l.013-.14c-.14.085-.31.15-.493.202-.187.05-.39.078-.61.078-.225 0-.425-.035-.593-.1-.173-.068-.317-.158-.426-.28-.114-.116-.2-.257-.258-.42-.055-.16-.082-.34-.082-.532 0-.207.035-.398.11-.578.077-.18.183-.34.316-.473.136-.132.3-.238.488-.316.187-.078.398-.113.625-.113.222 0 .426.035.613.11.188.07.352.187.488.35.137.165.243.376.32.637.08.258.118.575.118.946zM1.855-4.04c-.128 0-.246.02-.35.063-.11.043-.204.102-.282.184-.078.082-.14.18-.188.3-.047.118-.066.255-.066.407 0 .14.014.262.046.37.035.11.086.204.156.282.07.075.156.133.266.176.11.04.242.06.39.06.086 0 .172-.01.262-.025.09-.015.18-.035.262-.062.086-.027.168-.063.246-.098.078-.035.148-.074.207-.117 0-.293-.02-.54-.063-.734-.043-.2-.105-.356-.187-.477-.082-.118-.184-.204-.3-.255-.118-.05-.25-.074-.4-.074zm0 0"/></symbol><symbol overflow="visible" id="q"><path d="M-3.922-.785v-.62l.723-.02c-.277-.23-.48-.462-.605-.688-.125-.223-.187-.45-.187-.68 0-.406.133-.715.394-.926.262-.206.653-.303 1.172-.288v.688c-.344-.008-.594.043-.746.148-.156.11-.234.27-.234.477 0 .09.015.183.047.273.036.094.087.188.157.29.074.097.164.198.277.308.114.11.246.226.406.35H0v.69zm0 0"/></symbol><symbol overflow="visible" id="r"><path d="M-2.168-3.938c.098 0 .176 0 .242.004l.184.012v2.754c.402 0 .71-.113.926-.336.214-.223.32-.547.32-.97 0-.112-.004-.23-.012-.342-.012-.114-.023-.227-.04-.332-.014-.106-.03-.21-.05-.305-.02-.098-.043-.192-.066-.274h.56c.05.184.092.395.127.625.032.235.047.477.047.727 0 .336-.047.625-.136.867-.09.242-.223.442-.395.594-.177.156-.388.273-.642.344-.25.074-.535.113-.85.113-.278 0-.54-.04-.782-.12-.246-.08-.465-.196-.65-.35-.186-.15-.335-.335-.444-.557-.11-.223-.164-.473-.164-.754 0-.274.043-.516.13-.727.085-.21.206-.387.362-.535.16-.145.352-.25.578-.328.223-.074.477-.11.754-.11zm-.098.708c-.175-.008-.336.007-.476.05-.145.043-.27.106-.375.196-.106.086-.188.195-.242.324-.058.13-.09.28-.09.453 0 .148.028.285.087.406.058.12.136.226.242.316.104.09.23.16.374.214.144.055.305.09.48.102zm0 0"/></symbol><symbol overflow="visible" id="s"><path d="M-1.88-.426c-.28 0-.546-.04-.8-.113-.254-.073-.476-.187-.664-.343-.19-.152-.344-.35-.457-.594-.114-.242-.17-.53-.17-.867 0-.133.013-.265.033-.394.02-.13.054-.27.097-.414l-.152-.602h5.594v.684H.122l-.84-.035c.527.37.788.808.788 1.32 0 .23-.047.43-.14.597-.094.168-.227.313-.4.422-.17.114-.378.2-.616.254-.238.06-.504.086-.793.086zm-.042-.695c.22 0 .414-.017.59-.052.176-.03.324-.078.445-.148.12-.067.21-.15.278-.25.067-.098.098-.215.098-.352 0-.172-.078-.35-.23-.547-.153-.19-.383-.39-.684-.6h-1.82c-.05.105-.09.222-.12.35-.032.134-.048.275-.048.423 0 .383.125.676.38.875.253.2.624.3 1.112.3zm0 0"/></symbol><symbol overflow="visible" id="t"><path d="M0-3.777v.61l-.633.022c.137.118.25.23.34.333.09.105.16.21.215.316.055.105.094.207.117.316.02.106.03.215.03.332 0 .403-.117.707-.355.914-.238.207-.594.31-1.074.31H-3.92v-.68h2.508c.6 0 .902-.227.902-.68 0-.082-.01-.164-.035-.243-.027-.082-.07-.164-.13-.25-.06-.09-.143-.183-.25-.28-.104-.102-.233-.216-.393-.34h-2.602v-.68zm0 0"/></symbol><symbol overflow="visible" id="u"><path d="M-1.07-3.73c.136 0 .26.023.37.07.11.047.208.11.294.19.082.083.156.177.215.283.057.105.108.218.147.343.04.12.066.242.086.37.02.13.027.255.027.376 0 .266-.01.512-.035.73-.023.223-.062.442-.113.657h-.625c.066-.23.113-.458.148-.685.035-.226.05-.453.05-.675 0-.325-.042-.567-.132-.723-.09-.156-.215-.234-.38-.234-.07 0-.13.01-.186.035-.06.027-.11.07-.16.137-.05.066-.106.167-.16.3-.055.137-.118.325-.188.563-.052.176-.11.34-.18.488-.067.152-.145.28-.235.39-.09.11-.2.196-.32.26-.12.06-.266.092-.434.092-.108 0-.23-.027-.358-.078-.13-.05-.25-.137-.364-.258-.113-.12-.203-.29-.28-.496-.075-.207-.11-.468-.11-.78 0-.153.008-.325.023-.513.02-.187.048-.383.09-.586h.607c-.05.215-.09.418-.118.606-.024.19-.036.36-.036.5 0 .168.012.312.04.426.027.116.062.21.105.28.046.074.1.125.163.156.058.03.125.047.195.047s.133-.016.192-.043c.058-.027.113-.078.167-.152.05-.075.106-.176.157-.31.054-.132.113-.304.176-.518.066-.23.136-.426.214-.586.075-.16.157-.29.246-.387.09-.098.196-.172.31-.21.112-.044.245-.067.39-.067zm0 0"/></symbol><symbol overflow="visible" id="v"><path d="M-.055-3.785c.04.152.067.312.086.476.017.165.025.333.025.5 0 .494-.11.86-.332 1.103-.223.242-.567.363-1.028.363h-2.047v1.098h-.57v-1.098H-5l-.176-.68h1.254v-1.76h.57v1.76h1.993c.282 0 .493-.074.633-.226.137-.148.207-.367.207-.66 0-.125-.007-.262-.027-.41-.02-.15-.05-.305-.094-.465zm0 0"/></symbol><symbol overflow="visible" id="x"><path d="M-2.03-3.977c.346 0 .65.047.913.15.262.097.476.23.648.4.173.173.302.376.388.61.086.235.13.49.13.762 0 .125-.01.25-.02.375-.012.12-.036.246-.067.375h1.642v.68h-5.524v-.605l.656-.043c-.27-.196-.457-.403-.562-.625-.11-.223-.164-.46-.164-.72 0-.222.047-.42.14-.59.094-.167.227-.312.4-.425.167-.113.374-.2.616-.258.238-.06.508-.087.805-.087zm.03.696c-.207 0-.395.014-.566.046-.172.027-.32.074-.442.14-.12.067-.22.15-.29.25-.065.102-.1.223-.1.364 0 .085.015.17.04.26.026.09.073.18.14.275.062.097.148.195.25.3.105.106.238.22.394.34h1.902c.05-.125.094-.258.125-.394.027-.136.043-.273.043-.405 0-.368-.125-.657-.37-.864-.25-.206-.626-.31-1.126-.31zm0 0"/></symbol><symbol overflow="visible" id="y"><path d="M-.145-3.672c.067.176.118.36.153.547.03.184.047.375.047.574 0 .62-.168 1.097-.504 1.433-.335.332-.827.5-1.472.5-.308 0-.59-.047-.844-.145-.254-.097-.468-.23-.648-.406-.18-.176-.32-.383-.414-.625-.098-.242-.15-.508-.15-.8 0-.204.017-.395.044-.57.028-.177.075-.35.14-.51h.65c-.09.17-.153.345-.192.517-.043.176-.062.36-.062.547 0 .176.03.34.1.493.068.156.16.293.286.41.125.117.278.21.457.277.18.067.383.102.61.102.472 0 .828-.117 1.066-.344.235-.23.353-.55.353-.96 0-.184-.02-.364-.063-.54-.043-.172-.105-.34-.187-.5zm0 0"/></symbol><symbol overflow="visible" id="z"><path d="M-1.992-4.04c.304 0 .586.044.84.13.254.086.468.21.652.37.18.16.32.36.422.59.098.23.148.497.148.79 0 .28-.043.535-.13.754-.088.222-.217.414-.385.57-.168.152-.38.273-.63.352-.25.082-.538.125-.863.125-.304 0-.582-.042-.835-.128-.25-.086-.465-.21-.65-.37-.18-.162-.32-.36-.42-.59-.098-.232-.15-.497-.15-.79 0-.282.044-.535.134-.758.087-.223.212-.41.383-.567.168-.152.375-.273.625-.35.25-.083.536-.126.86-.126zm.03.696c-.24 0-.452.028-.632.078-.183.055-.336.133-.453.23-.12.1-.215.22-.273.364-.063.14-.094.297-.094.473 0 .204.04.376.117.52.082.145.188.266.32.356.133.094.29.16.46.203.177.042.365.065.556.065.24 0 .452-.027.636-.078.183-.054.332-.133.457-.23.12-.098.21-.22.273-.36.06-.14.09-.3.09-.476 0-.202-.04-.378-.117-.52-.083-.143-.19-.264-.32-.358-.134-.09-.287-.156-.462-.203-.176-.044-.364-.064-.56-.064zm0 0"/></symbol><symbol overflow="visible" id="A"><path d="M-3.922-.625v-.605l.633-.028c-.136-.113-.25-.226-.335-.332-.09-.105-.164-.21-.22-.316-.053-.102-.092-.207-.116-.313-.02-.104-.032-.217-.032-.33 0-.403.117-.712.36-.92.237-.206.593-.307 1.073-.307H0v.68h-2.504c-.308 0-.535.058-.683.17-.145.115-.22.286-.22.513 0 .082.012.164.04.242.023.082.066.164.125.25.062.086.144.18.25.277.105.102.234.215.39.34H0v.68zm0 0"/></symbol><symbol overflow="visible" id="B"><path d="M-1.88-.426c-.33 0-.628-.047-.886-.137-.26-.09-.48-.222-.656-.39-.18-.168-.316-.367-.406-.606-.094-.233-.14-.495-.14-.784 0-.125.007-.25.023-.37.015-.122.04-.24.074-.356h-1.65v-.684H0v.61l-.742.023c.277.19.48.393.613.616.134.223.2.46.2.72 0 .222-.047.42-.14.59-.094.17-.227.31-.395.428-.172.114-.38.196-.617.254-.238.06-.504.086-.797.086zm-.042-.695c.473 0 .828-.07 1.063-.208.23-.14.348-.34.348-.594 0-.172-.078-.35-.23-.547-.153-.19-.383-.39-.684-.6h-1.82c-.05.113-.09.234-.12.37-.03.138-.04.27-.04.403 0 .37.12.656.36.863.237.207.612.313 1.124.313zm0 0"/></symbol><symbol overflow="visible" id="C"><path d="M4.133-.164c-.2.078-.406.133-.613.172-.21.035-.426.054-.65.054-.698 0-1.233-.19-1.612-.566-.375-.38-.563-.933-.563-1.66 0-.348.055-.664.16-.945.11-.285.262-.53.458-.73.195-.203.433-.36.703-.47.273-.108.574-.163.902-.163.23 0 .44.016.64.047.2.03.39.086.575.16v.727c-.192-.097-.387-.17-.586-.214-.195-.047-.4-.07-.61-.07-.2 0-.382.04-.558.113-.177.073-.33.183-.458.323-.133.14-.238.31-.313.512-.08.203-.118.43-.118.688 0 .53.133.93.39 1.195.26.265.618.398 1.08.398.206 0 .41-.023.604-.07.196-.047.383-.117.567-.21zm0 0"/></symbol><symbol overflow="visible" id="D"><path d="M4.543-2.242c0 .344-.047.656-.145.945-.097.285-.234.527-.418.73-.18.204-.402.364-.664.477-.26.113-.554.168-.886.168-.317 0-.598-.047-.852-.144-.25-.098-.46-.246-.637-.434C.77-.69.638-.926.544-1.207.45-1.487.406-1.812.406-2.18c0-.343.047-.656.145-.937.098-.28.235-.528.42-.73.178-.204.4-.364.66-.473.26-.114.558-.172.89-.172.316 0 .597.05.847.148.25.098.465.242.637.43.176.187.31.426.402.707.094.28.137.602.137.965zm-.78.035c0-.273-.033-.508-.09-.715-.06-.203-.146-.37-.26-.508-.108-.136-.245-.238-.405-.308-.16-.067-.336-.102-.535-.102-.227 0-.422.043-.586.133-.16.09-.297.207-.4.36-.104.148-.178.32-.23.52-.046.198-.07.405-.07.62 0 .273.028.512.09.72.06.202.145.374.258.51.11.137.246.24.403.305.16.07.335.106.535.106.23 0 .425-.047.59-.133.16-.09.292-.21.398-.36.106-.147.18-.323.228-.518.05-.2.074-.406.074-.63zm0 0"/></symbol><symbol overflow="visible" id="E"><path d="M4.79-4.414L4.147 0h-.925l-.637-1.844-.13-.45-.143.474L1.7 0H.8L.165-4.414H.91l.367 3 .082.668.187-.586.64-1.98h.55L3.43-1.36l.195.587.066-.622.345-3.02zm0 0"/></symbol><symbol overflow="visible" id="F"><path d="M4.473-2.285c0 .367-.05.695-.153.98-.1.29-.242.535-.43.735-.187.203-.41.355-.68.46-.265.11-.565.165-.897.165-.262 0-.528-.028-.8-.078-.275-.047-.544-.13-.81-.235V-6.21h.766v1.71l-.036.816c.218-.296.453-.503.703-.625.25-.12.52-.182.808-.182.25 0 .473.054.664.16.187.105.347.254.476.445.13.192.226.422.29.696.065.268.097.573.097.905zm-.782.035c0-.23-.014-.445-.05-.637-.035-.195-.085-.36-.16-.496-.074-.137-.167-.246-.28-.324-.114-.078-.25-.117-.41-.117-.095 0-.196.015-.294.047-.098.03-.203.082-.308.152-.11.074-.223.168-.34.29-.118.116-.246.265-.38.44v2.137c.15.06.302.106.458.14.156.036.3.052.44.052.177 0 .345-.028.505-.082.16-.06.302-.153.423-.282.12-.13.22-.304.29-.52.073-.214.108-.48.108-.8zm0 0"/></symbol><symbol overflow="visible" id="G"><path d="M4.63-4.414L3.124-.464C2.97-.063 2.81.28 2.645.57c-.168.29-.348.528-.543.715-.196.188-.414.324-.65.41-.233.09-.495.133-.784.133-.074 0-.145 0-.207-.004L.26 1.812v-.695l.21.024c.08.008.157.012.243.012.142 0 .274-.02.395-.062.122-.043.24-.11.344-.2.11-.093.214-.21.312-.36.1-.143.195-.323.29-.53L.288-4.414h.87l1.117 2.922.223.683.254-.702L3.79-4.414zm0 0"/></symbol><symbol overflow="visible" id="I"><path d="M4.383 0H.773v-.71H2.25v-4.196l-1.375.75-.28-.653 1.827-.96h.676v5.06h1.285zm0 0"/></symbol><symbol overflow="visible" id="J"><path d="M2.438-1.383c.1 0 .195.016.285.055.09.04.168.094.234.16s.117.145.152.234c.038.09.058.184.058.29 0 .097-.02.19-.06.28-.034.087-.088.165-.15.23-.067.068-.146.118-.235.157-.09.04-.184.055-.285.055-.102 0-.196-.02-.286-.055-.086-.04-.164-.09-.23-.156-.067-.066-.117-.144-.156-.23-.04-.09-.055-.184-.055-.282 0-.105.017-.2.056-.29.04-.088.09-.167.156-.233s.144-.12.23-.16c.09-.04.184-.055.285-.055zm0 0"/></symbol><symbol overflow="visible" id="K"><path d="M4.68 0H3.664l-1.19-1.684L1.296 0H.31l1.706-2.215-1.63-2.2h.98l1.16 1.7 1.138-1.7h.945l-1.657 2.22zm0 0"/></symbol><symbol overflow="visible" id="L"><path d="M3.344 1.844C1.992.594 1.32-.79 1.32-2.306c0-.35.035-.706.106-1.057.07-.356.187-.707.347-1.063.16-.355.372-.707.633-1.062.262-.356.582-.707.957-1.055l.442.453C2.668-4.97 2.102-3.727 2.102-2.36c0 .68.14 1.333.43 1.962.288.625.71 1.218 1.273 1.773zm0 0"/></symbol><symbol overflow="visible" id="M"><path d="M4.25 0h-.766v-2.816c0-.34-.062-.594-.19-.762-.13-.168-.31-.254-.548-.254-.1 0-.2.016-.29.043-.09.028-.18.075-.276.145-.098.067-.203.16-.317.278-.113.117-.246.265-.394.44V0H.702v-6.21h.766v1.796l-.03.695c.123-.143.24-.26.357-.362.113-.098.23-.176.344-.238.118-.063.235-.106.356-.133.12-.024.246-.04.375-.04.44 0 .778.138 1.02.403.24.27.36.672.36 1.21zm0 0"/></symbol><symbol overflow="visible" id="N"><path d="M1.605-6.543c1.348 1.25 2.024 2.64 2.024 4.176 0 .316-.032.644-.1.984-.06.34-.17.688-.327 1.043-.156.356-.363.715-.625 1.082-.262.367-.594.735-.992 1.102l-.445-.45C1.716.83 2.14.24 2.423-.378c.28-.612.422-1.257.422-1.933 0-1.394-.567-2.648-1.703-3.76zm0 0"/></symbol><symbol overflow="visible" id="P"><path d="M3.672-.145c-.176.067-.36.118-.547.153-.184.03-.375.047-.574.047-.62 0-1.097-.168-1.433-.504-.332-.335-.5-.827-.5-1.472 0-.308.047-.59.145-.844.097-.254.23-.468.406-.648.176-.18.383-.32.625-.414.242-.098.508-.15.8-.15.204 0 .395.017.57.044.177.028.35.075.51.14v.65c-.17-.09-.345-.153-.517-.192-.176-.043-.36-.062-.547-.062-.176 0-.34.03-.493.1-.156.068-.293.16-.41.286-.117.125-.21.278-.277.457-.067.18-.102.383-.102.61 0 .472.117.828.344 1.062.23.238.55.356.96.356.184 0 .364-.02.54-.063.172-.043.34-.105.5-.187zm0 0"/></symbol><symbol overflow="visible" id="Q"><path d="M4.04-1.992c0 .304-.044.586-.13.836-.086.254-.21.472-.37.656-.16.18-.36.32-.59.422-.23.098-.497.148-.79.148-.28 0-.535-.043-.754-.133-.222-.085-.414-.214-.57-.382-.152-.168-.273-.38-.352-.63-.082-.25-.125-.538-.125-.863 0-.304.042-.582.128-.835.086-.25.21-.465.37-.65.162-.18.36-.32.59-.42.232-.098.497-.15.79-.15.282 0 .535.044.754.134.223.087.414.212.57.383.153.168.274.375.352.625.082.25.125.536.125.86zm-.696.03c0-.24-.028-.452-.078-.632-.055-.183-.133-.336-.23-.453-.1-.12-.22-.215-.364-.273-.14-.063-.297-.094-.473-.094-.204 0-.38.04-.52.117-.145.082-.266.188-.36.32-.09.133-.156.29-.203.46-.043.177-.062.365-.062.556 0 .24.027.452.078.636.054.183.133.332.23.457.098.12.22.21.36.273.14.06.3.09.476.09.202 0 .378-.04.52-.12.143-.08.264-.185.358-.317.09-.134.156-.287.203-.466.044-.176.064-.36.064-.555zm0 0"/></symbol><symbol overflow="visible" id="R"><path d="M4.258-3.922L3.688 0h-.825l-.566-1.64-.113-.4-.13.423L1.513 0h-.8L.144-3.922H.81l.327 2.664.07.594.168-.52.57-1.76h.49l.612 1.737.176.52.058-.55.306-2.685zm0 0"/></symbol><symbol overflow="visible" id="S"><path d="M3.977-2.03c0 .323-.047.616-.133.874-.09.254-.22.472-.383.648-.167.18-.366.317-.605.414-.238.094-.503.14-.8.14-.23 0-.47-.023-.71-.066C1.1-.062.862-.133.624-.23v-5.29h.68V-4l-.032.727c.196-.262.407-.45.625-.555.223-.11.465-.164.72-.164.222 0 .42.047.59.14.167.094.312.227.425.4.113.167.2.374.258.616.06.238.087.508.087.805zM3.28-2c0-.207-.014-.395-.046-.566-.027-.172-.074-.32-.14-.442-.067-.12-.15-.22-.25-.29-.102-.065-.223-.1-.364-.1-.085 0-.17.015-.26.04-.09.026-.18.073-.275.14-.097.062-.195.148-.304.25-.105.105-.214.238-.335.394v1.902c.133.05.27.094.406.125.138.027.27.043.395.043.157 0 .305-.023.45-.074.14-.05.265-.133.375-.25.105-.113.19-.266.257-.46.063-.192.094-.427.094-.712zm0 0"/></symbol><symbol overflow="visible" id="T"><path d="M4.113-3.922L2.777-.414c-.136.355-.28.664-.425.922-.15.258-.31.47-.485.633-.176.17-.367.29-.574.368-.207.078-.44.117-.7.117-.066 0-.128 0-.183-.004l-.18-.01V.99l.188.024c.066.004.14.007.215.007.125 0 .242-.02.35-.054.107-.036.208-.095.306-.18.097-.083.187-.188.276-.317.09-.13.176-.29.258-.473L.258-3.922h.773l.993 2.594.2.61.226-.626.917-2.578zm0 0"/></symbol><symbol overflow="visible" id="U"><path d="M4.36 0H3.6l-.356-1.113H1.12L.763 0H.04l1.694-5.105h.954zM3.046-1.734l-.863-2.73-.864 2.73zm0 0"/></symbol><symbol overflow="visible" id="V"><path d="M4.383-5.105L2.648 0H1.71L.017-5.105H.8l1.102 3.44.313 1.01.32-1.01 1.106-3.44zm0 0"/></symbol><symbol overflow="visible" id="W"><path d="M3.93-4.23c-.192-.102-.387-.18-.586-.24-.2-.053-.418-.08-.656-.08-.27 0-.512.046-.723.144-.21.097-.387.234-.535.406-.145.176-.254.39-.328.637-.08.246-.118.52-.118.82 0 .313.032.594.094.84.063.246.16.457.293.63.134.17.302.303.513.393.207.09.453.137.742.137.05 0 .102-.004.16-.008.06-.005.113-.012.172-.02l.168-.035c.05-.012.098-.028.14-.043v-1.625H2.224v-.575h1.73v2.61c-.105.05-.22.093-.336.133-.12.04-.242.07-.367.097-.12.028-.246.047-.367.06-.12.01-.242.018-.356.018-.347 0-.664-.054-.94-.164-.282-.11-.52-.273-.72-.484-.195-.215-.344-.485-.453-.805-.105-.32-.156-.69-.156-1.113 0-.418.058-.793.176-1.13.117-.33.28-.608.496-.843.21-.23.465-.405.765-.522.297-.12.625-.184.985-.184.23 0 .445.02.656.06.207.042.402.104.594.194zm0 0"/></symbol><symbol overflow="visible" id="X"><path d="M3.81-1.633c0 .254-.056.485-.165.692-.11.206-.262.385-.45.534-.19.152-.418.27-.68.35-.26.083-.542.126-.843.126-.074 0-.156 0-.242-.008C1.34.06 1.254.056 1.168.048 1.082.043 1 .035.914.027.832.02.762.012.694 0v-.617c.142.035.302.058.486.074.18.016.363.023.547.023.207 0 .394-.023.562-.074.167-.05.308-.12.425-.21.117-.094.207-.208.27-.337.062-.133.093-.282.093-.446 0-.316-.113-.547-.344-.695-.226-.146-.554-.216-.98-.216h-.97v-2.61h2.75v.594H1.427v1.434h.445c.247 0 .485.023.716.066.23.043.437.12.617.23.184.114.328.262.438.446.114.188.17.422.17.703zm0 0"/></symbol><symbol overflow="visible" id="Y"><path d="M3.91-2.84c0 .496-.058.926-.18 1.285-.12.356-.296.65-.53.883-.235.23-.524.4-.872.508-.348.11-.746.164-1.2.164H.704v-.594h.473c.336 0 .625-.035.87-.1.247-.068.45-.17.61-.298.164-.133.29-.293.375-.485.087-.187.142-.402.16-.644l.017-.16c-.164.096-.352.17-.566.233-.214.06-.445.086-.695.086-.258 0-.484-.04-.68-.114-.195-.074-.36-.18-.484-.317-.128-.137-.225-.297-.292-.485C.422-3.06.39-3.262.39-3.48c0-.24.044-.458.13-.665.085-.207.207-.386.363-.535.152-.152.34-.273.554-.363.215-.09.454-.133.715-.133.254 0 .49.043.7.125.214.08.402.218.558.402.156.187.277.43.367.726.09.297.133.656.133 1.082zM2.12-4.617c-.143 0-.28.023-.4.07-.126.05-.236.12-.322.21-.09.095-.164.208-.214.345-.05.137-.08.29-.08.465 0 .16.02.3.06.425.035.125.094.23.172.32.082.087.184.153.31.2.124.047.272.07.444.07.098 0 .195-.008.3-.027.102-.02.204-.042.297-.073.098-.032.192-.067.282-.11.09-.043.167-.086.237-.132 0-.336-.023-.618-.074-.84-.05-.227-.12-.407-.215-.547-.094-.137-.207-.23-.34-.29-.137-.058-.29-.085-.457-.085zm0 0"/></symbol><symbol overflow="visible" id="Z"><path d="M3.895 0H.687v-.633H2V-4.36l-1.223.665-.25-.578 1.625-.856h.602v4.497h1.14zm0 0"/></symbol><symbol overflow="visible" id="aa"><path d="M3.938 0H.574v-.61l1.32-1.312c.215-.215.39-.398.528-.555.137-.156.242-.296.316-.43.075-.128.125-.25.153-.363.028-.113.04-.238.04-.37 0-.126-.016-.243-.05-.36-.036-.113-.087-.21-.157-.297-.07-.086-.16-.152-.274-.203-.114-.05-.247-.074-.403-.074-.215 0-.414.047-.59.144-.176.098-.34.223-.488.375l-.376-.45c.19-.202.414-.366.664-.487.254-.12.547-.184.88-.184.225 0 .432.035.62.102.183.066.344.164.48.293.137.128.24.284.317.468.074.183.11.394.11.625 0 .195-.028.374-.08.542-.05.168-.132.333-.233.497-.106.168-.243.34-.4.515-.16.176-.35.37-.57.582l-.925.902h2.48zm0 0"/></symbol><symbol overflow="visible" id="ab"><path d="M4.207 0h-.68l-.1-3.184-.044-1.222-.238.71-.754 2.032h-.48l-.72-1.953-.237-.79-.015 1.278L.848 0H.19l.25-5.105h.826l.687 1.92.223.65.215-.65.723-1.92h.848zm0 0"/></symbol><symbol overflow="visible" id="ac"><path d="M1.848-4.52H.672v-.585h3.055v.585H2.55v3.926h1.177V0H.672v-.594h1.176zm0 0"/></symbol><symbol overflow="visible" id="ad"><path d="M3.938 0H3.03L1.544-3.184l-.43-1.023V0H.465v-5.105h.894L2.776-2.09 3.29-.922v-4.183h.647zm0 0"/></symbol><symbol overflow="visible" id="ae"><path d="M3.84-1.55c0 .222-.047.433-.137.628-.09.2-.226.37-.41.516-.184.148-.41.265-.688.35-.277.083-.597.126-.964.126-.202 0-.386-.008-.546-.02C.934.04.78.02.64 0v-.61c.16.028.333.05.512.067.18.016.364.023.55.023.255 0 .474-.023.657-.066.18-.047.328-.113.44-.2.114-.085.2-.19.25-.312.052-.12.08-.26.08-.414 0-.14-.032-.26-.095-.367-.062-.104-.152-.19-.262-.26-.113-.07-.25-.126-.406-.157-.16-.035-.332-.055-.52-.055h-.58v-.558h.588c.153 0 .293-.02.418-.06.13-.042.235-.1.33-.175.088-.074.155-.167.202-.277.05-.113.074-.238.074-.38 0-.272-.083-.47-.25-.596-.17-.125-.41-.188-.735-.188-.172 0-.348.016-.532.05-.183.036-.38.087-.586.153v-.594c.09-.03.184-.058.285-.085.098-.024.2-.043.297-.063.1-.016.202-.027.3-.04.098-.007.195-.01.285-.01.27 0 .508.027.715.09.207.058.38.14.516.25.136.108.242.24.312.397.07.157.106.333.106.528 0 .293-.074.535-.227.734-.148.2-.35.356-.613.473.133.02.262.062.394.125.13.062.243.14.344.242.106.098.188.21.25.344.067.133.098.28.098.44zm0 0"/></symbol><symbol overflow="visible" id="af"><path d="M4.305 0h-.88l-1.24-2.063L.936 0H.07l1.7-2.61L.207-5.104h.824l1.17 1.92 1.175-1.92h.8L2.61-2.64zm0 0"/></symbol><symbol overflow="visible" id="ag"><path d="M4.19-1.13h-.87V0h-.695v-1.13H.168v-.597l2.176-3.378h.976v3.378h.87zM2.626-4.45L.848-1.726h1.777zm0 0"/></symbol><symbol overflow="visible" id="ah"><path d="M3.938-1.28c0 .214-.043.405-.133.577-.09.168-.21.308-.37.422-.162.112-.35.202-.564.26-.214.06-.448.09-.702.09-.277 0-.523-.03-.738-.093-.21-.063-.387-.15-.532-.262-.144-.113-.25-.246-.324-.4-.074-.15-.11-.323-.11-.506 0-.314.087-.583.263-.81.175-.227.445-.434.808-.617-.332-.168-.578-.36-.73-.563-.153-.207-.23-.445-.23-.715 0-.164.034-.324.1-.476.067-.153.17-.29.31-.41.136-.122.304-.216.51-.29.208-.07.45-.106.728-.106.26 0 .496.028.69.082.2.06.368.137.505.242.137.106.238.23.305.38.066.148.1.312.1.495 0 .297-.08.55-.245.758-.168.208-.402.392-.707.548.153.074.294.16.423.25.13.09.242.192.34.305.097.113.172.238.226.375.05.137.078.293.078.46zm-.81-2.642c0-.23-.08-.406-.245-.515-.16-.114-.39-.172-.684-.172-.294 0-.52.055-.684.17-.16.112-.243.28-.243.503 0 .1.02.195.06.28.038.087.097.17.183.243.082.074.183.148.304.223.12.073.27.147.438.22.293-.135.512-.28.656-.428.145-.153.215-.325.215-.524zM3.2-1.23c0-.098-.014-.192-.046-.282-.03-.09-.086-.18-.168-.27-.082-.09-.187-.175-.324-.265-.137-.09-.308-.18-.515-.273-.176.086-.325.172-.45.257-.12.083-.218.168-.29.258-.073.086-.128.176-.16.27-.03.094-.046.19-.046.297 0 .117.027.222.073.308.05.09.122.168.21.23.09.063.197.11.318.14.122.033.255.048.4.048.136 0 .27-.015.39-.043.12-.027.23-.07.316-.132.09-.06.164-.133.215-.22.052-.09.08-.198.08-.323zm0 0"/></symbol><symbol overflow="visible" id="ai"><path d="M3.895-1.383c0 .242-.05.453-.15.637-.097.183-.237.332-.413.457-.176.122-.39.212-.637.27-.25.06-.523.09-.824.09-.136 0-.268-.004-.4-.015C1.33.043 1.202.03 1.077.015.958 0 .84-.02.73-.038.62-.06.523-.08.434-.104v-.672c.195.074.414.13.66.172.242.042.52.062.828.062.223 0 .414-.02.57-.05.16-.036.29-.09.39-.157.098-.07.173-.156.22-.254.043-.098.066-.21.066-.34 0-.136-.04-.258-.113-.35-.078-.1-.18-.19-.305-.267-.125-.075-.266-.145-.43-.212-.16-.062-.32-.13-.488-.195-.168-.067-.332-.14-.488-.22-.16-.08-.305-.175-.43-.28C.79-2.977.687-3.105.61-3.25c-.075-.145-.114-.32-.114-.52 0-.175.035-.347.11-.515.074-.168.187-.32.34-.45.152-.132.35-.238.593-.32.237-.082.526-.12.858-.12.086 0 .18.003.282.01.097.01.2.02.304.032.102.016.204.03.305.05.097.02.19.04.276.06v.625c-.2-.06-.402-.102-.6-.133-.2-.03-.396-.044-.583-.044-.4 0-.692.066-.88.2-.187.132-.28.31-.28.534 0 .137.04.258.113.356.078.097.18.187.305.265.126.08.266.15.43.212.16.067.32.133.49.2.167.066.33.14.487.222.16.082.305.176.43.29.125.108.226.237.304.386.075.148.115.324.115.527zm0 0"/></symbol><symbol overflow="visible" id="aj"><path d="M4.063-4.512H2.55V0H1.85v-4.512H.336v-.593h3.726zm0 0"/></symbol><symbol overflow="visible" id="ak"><path d="M4.113-2.61c0 .247-.02.48-.058.704-.035.222-.098.433-.18.625-.082.19-.19.366-.324.522-.132.16-.296.293-.487.406-.192.114-.418.2-.672.258C2.138-.03 1.845 0 1.52 0H.426v-5.105h1.316c.797 0 1.39.207 1.78.613.396.41.59 1.04.59 1.883zm-.73.05c0-.362-.035-.667-.102-.917-.065-.25-.17-.453-.307-.605-.137-.152-.313-.266-.52-.332-.207-.07-.453-.106-.734-.106h-.6v3.918h.52c1.16 0 1.743-.652 1.743-1.957zm0 0"/></symbol><symbol overflow="visible" id="al"><path d="M3.688 0H.784v-5.105h2.903v.585H1.48v1.582h2.122v.586H1.48v1.758h2.207zm0 0"/></symbol><symbol overflow="visible" id="am"><path d="M3.91-4.473L1.77 0H.992l2.223-4.473H.457v-.632H3.91zm0 0"/></symbol><symbol overflow="visible" id="an"><path d="M4.055-2.55c0 .39-.04.745-.117 1.066-.08.324-.196.6-.356.828-.16.23-.355.41-.59.54-.238.124-.515.186-.832.186-.273 0-.523-.05-.746-.156C1.19-.188 1-.344.84-.56.68-.772.56-1.042.473-1.374c-.086-.332-.13-.723-.13-1.176 0-.39.04-.747.118-1.07.083-.325.2-.6.36-.833.157-.23.352-.406.59-.53.238-.13.512-.193.828-.193.274 0 .524.05.746.153.223.105.414.265.575.476.16.215.28.488.366.82.086.332.13.723.13 1.176zm-.688.023c0-.09-.004-.176-.008-.262l-.024-.257-2.16 1.606c.04.135.09.26.148.374.06.113.133.214.215.293.085.082.183.148.288.195.11.043.234.066.37.066.177 0 .34-.043.482-.13.144-.085.27-.213.37-.38.102-.17.18-.38.235-.634.055-.25.082-.54.082-.87zM1.03-2.574v.242c.005.082.01.16.017.234l2.16-1.597c-.04-.133-.09-.254-.148-.364-.06-.108-.134-.202-.216-.284-.082-.078-.18-.14-.285-.183-.107-.043-.228-.067-.36-.067-.177 0-.34.043-.48.13-.146.085-.27.214-.372.386-.102.168-.18.38-.235.633-.054.25-.082.54-.082.87zm0 0"/></symbol><symbol overflow="visible" id="ao"><path d="M3.977-2.03c0 .346-.047.65-.15.913-.097.262-.23.476-.4.648-.173.173-.376.302-.61.388-.235.086-.49.13-.762.13-.125 0-.25-.01-.375-.02-.12-.012-.246-.036-.375-.067v1.642h-.68v-5.524h.605l.043.656c.196-.27.403-.457.625-.562.223-.11.46-.164.72-.164.222 0 .42.047.59.14.167.094.312.227.425.4.113.167.2.374.258.616.06.238.087.508.087.805zM3.28-2c0-.207-.014-.395-.046-.566-.027-.172-.074-.32-.14-.442-.067-.12-.15-.22-.25-.29-.102-.065-.223-.1-.364-.1-.085 0-.17.015-.26.04-.09.026-.18.073-.275.14-.097.062-.195.148-.304.25-.105.105-.214.238-.335.394v1.902c.125.05.258.094.394.125.136.027.273.043.405.043.368 0 .657-.125.864-.37.206-.25.31-.626.31-1.126zm0 0"/></symbol><symbol overflow="visible" id="ap"><path d="M1.96-4.96H.8v-.56H2.65v4.954h1.168V0H.672v-.566h1.29zm0 0"/></symbol><symbol overflow="visible" id="aq"><path d="M3.777 0h-.61l-.022-.633c-.118.137-.23.25-.333.336-.105.09-.21.164-.316.22-.105.054-.207.093-.316.116-.106.02-.215.03-.332.03-.403 0-.707-.117-.914-.355C.727-.523.624-.88.624-1.36V-3.92h.68v2.508c0 .6.227.902.68.902.082 0 .164-.01.243-.035.082-.027.164-.07.25-.133.09-.058.183-.14.28-.246.102-.105.216-.234.34-.394v-2.602h.68zm0 0"/></symbol><symbol overflow="visible" id="ar"><path d="M3.45-3.367c.073.09.128.195.167.32.043.12.063.25.063.39 0 .204-.04.39-.11.555-.074.168-.18.313-.316.434-.137.12-.297.215-.488.277-.188.066-.395.1-.62.1-.166 0-.318-.015-.462-.054-.145-.035-.258-.078-.34-.13-.05.076-.09.142-.125.208-.036.067-.052.137-.052.22 0 .097.047.18.145.245.093.066.218.1.375.105l1.03.04c.196.003.376.03.54.073.168.043.308.11.43.19.117.083.21.19.273.31.067.12.103.266.103.426 0 .176-.04.34-.114.496-.075.156-.192.293-.348.41-.16.12-.36.215-.602.285-.242.07-.53.106-.863.106-.317 0-.59-.023-.81-.077-.222-.05-.405-.118-.55-.21-.144-.09-.246-.197-.312-.322C.398.91.367.774.367.626.367.435.41.27.5.125.59-.02.727-.155.91-.29.844-.32.785-.36.734-.405c-.05-.047-.09-.098-.12-.156C.58-.618.558-.676.543-.738.526-.8.52-.863.52-.922c0-.168.04-.324.12-.465.08-.14.172-.273.282-.398-.05-.06-.094-.117-.133-.176C.753-2.02.72-2.08.694-2.15c-.027-.067-.05-.137-.062-.21C.617-2.44.61-2.53.61-2.626c0-.203.038-.39.11-.555.073-.168.178-.312.31-.433.138-.12.298-.215.486-.278.19-.067.398-.102.63-.102.096 0 .186.008.276.02.09.01.168.03.234.05h1.422v.555zM1.09.566c0 .184.097.32.29.403.19.085.46.128.804.128.214 0 .398-.02.543-.06.148-.038.265-.09.36-.155.09-.063.15-.133.19-.22.04-.08.06-.163.06-.25 0-.16-.067-.276-.196-.35-.128-.075-.328-.122-.597-.133L1.52-.105c-.086.058-.157.113-.215.167-.055.055-.098.11-.13.165-.03.058-.054.113-.066.17-.012.056-.02.11-.02.17zm.207-3.207c0 .124.02.238.062.343.042.106.1.192.175.266.074.073.164.128.27.17.1.04.215.06.34.06.136 0 .253-.024.363-.067.105-.047.19-.11.265-.188.07-.078.125-.168.164-.27.036-.1.055-.206.055-.316 0-.126-.02-.24-.062-.344-.043-.106-.102-.192-.176-.266-.074-.074-.164-.13-.27-.172-.1-.04-.214-.058-.34-.058-.136 0-.253.023-.363.07-.104.047-.19.11-.264.183-.07.08-.125.168-.164.27-.036.102-.055.207-.055.316zm0 0"/></symbol><symbol overflow="visible" id="as"><path d="M4-1.617c0 .234-.043.453-.125.66-.086.207-.207.387-.363.535-.157.152-.344.274-.567.36-.218.09-.46.132-.73.132-.28 0-.53-.047-.746-.133-.216-.09-.4-.23-.544-.414C.78-.664.668-.897.594-1.184.52-1.47.48-1.804.48-2.19c0-.263.016-.513.05-.76.036-.245.09-.476.17-.69.077-.215.183-.415.312-.594.13-.18.293-.336.488-.46.19-.13.422-.232.684-.306.26-.07.566-.105.914-.105h.504v.593h-.547c-.305 0-.57.035-.793.11-.223.074-.41.175-.563.308-.153.133-.266.293-.348.48-.082.188-.133.4-.153.63l-.016.16c.164-.098.355-.176.566-.23.215-.06.45-.09.7-.09.257 0 .484.04.675.113.195.073.36.178.484.31.128.138.226.298.292.486.067.187.098.394.098.617zm-.71.043c0-.156-.02-.297-.056-.426-.04-.125-.097-.23-.18-.32-.08-.086-.183-.153-.304-.203-.125-.047-.273-.07-.445-.07-.098 0-.2.007-.3.027-.103.02-.2.043-.302.074-.098.035-.187.07-.277.113-.09.044-.168.087-.242.134 0 .336.023.617.07.84.047.226.117.406.207.543.095.136.208.23.345.29.136.057.293.085.468.085.15 0 .286-.024.407-.075.125-.046.234-.117.32-.21.09-.094.164-.207.21-.344.052-.133.08-.285.08-.457zm0 0"/></symbol><symbol overflow="visible" id="at"><path d="M3.777 0h-.68v-2.504c0-.3-.058-.527-.167-.676-.114-.152-.278-.226-.49-.226-.088 0-.174.01-.252.04-.083.022-.165.065-.25.124-.086.062-.18.144-.282.25-.1.105-.218.234-.35.39V0h-.68v-5.52h.68v1.598l-.025.617c.107-.13.212-.234.314-.32.105-.09.207-.16.312-.215.102-.055.207-.094.313-.117.104-.023.217-.035.33-.035.39 0 .692.117.907.36.215.237.32.593.32 1.073zm0 0"/></symbol><symbol overflow="visible" id="au"><path d="M3.938-2.168c0 .098 0 .176-.004.242l-.012.184H1.168c0 .402.113.71.336.922.223.215.547.324.97.324.112 0 .23-.004.342-.012.114-.012.227-.023.332-.04.106-.014.21-.03.305-.054.098-.02.192-.04.274-.062v.56c-.184.05-.395.092-.625.127-.235.032-.477.047-.727.047-.336 0-.625-.047-.867-.136-.242-.09-.442-.223-.594-.395C.758-.638.64-.85.57-1.103c-.074-.25-.113-.535-.113-.85 0-.278.04-.54.12-.782.08-.246.196-.465.345-.65.152-.186.34-.335.562-.444.223-.11.473-.164.754-.164.274 0 .516.043.727.13.21.085.387.206.535.362.145.16.25.352.328.578.074.223.11.477.11.754zm-.708-.098c.008-.175-.007-.336-.05-.476-.043-.145-.106-.27-.196-.375-.086-.106-.195-.188-.324-.242-.13-.058-.28-.09-.453-.09-.148 0-.285.028-.406.087-.12.058-.226.136-.316.242-.09.104-.16.23-.214.374-.055.144-.09.305-.102.48zm0 0"/></symbol><symbol overflow="visible" id="av"><path d="M.625-3.922h.605l.028.633c.113-.136.226-.25.332-.335.105-.09.21-.164.316-.22.102-.053.207-.092.313-.116.104-.02.217-.032.33-.032.403 0 .708.117.92.36.206.237.307.593.307 1.073V0h-.68v-2.504c0-.308-.058-.535-.17-.683-.115-.145-.286-.22-.513-.22-.082 0-.164.012-.242.04-.082.023-.164.066-.25.125-.086.062-.18.144-.28.25-.1.105-.212.234-.337.39V0h-.68zm0 0"/></symbol><symbol overflow="visible" id="aw"><path d="M1.96-3.36H.8v-.562H2.65v3.356h1.168V0H.672v-.566h1.29zm.24-2.206c.073 0 .144.01.21.043.067.027.12.062.168.113.05.05.086.105.117.168.028.066.04.137.04.21 0 .075-.016.14-.04.208-.027.066-.066.12-.117.172-.047.05-.1.09-.168.113-.066.028-.137.044-.21.044-.075 0-.145-.012-.212-.043-.066-.026-.12-.062-.168-.112-.05-.05-.086-.106-.117-.172-.027-.067-.04-.133-.04-.207 0-.075.017-.146.04-.212.027-.063.067-.117.117-.168.047-.05.102-.09.168-.113.067-.028.137-.043.21-.043zm0 0"/></symbol><symbol overflow="visible" id="ax"><path d="M4.16 0h-.902l-1.06-1.496L1.153 0h-.88l1.52-1.97L.345-3.92h.87l1.032 1.508 1.012-1.508h.84l-1.473 1.97zm0 0"/></symbol><clipPath id="a"><path d="M55 148h600v31H55zm0 0"/></clipPath><clipPath id="b"><path d="M55 110h600v64H55zm0 0"/></clipPath><clipPath id="c"><path d="M55 53h600v136H55zm0 0"/></clipPath></defs><path fill="#F2F2F2" d="M0 0h685v299H0z"/><path d="M55 233h600V33H55zm0 0" fill="#FFF"/><path d="M55 54.23V233.2h599v-61.93h-10v-1.08h-10v-1.12h-11v-1.156h-10v-1.207h-10v-1.246h-11v.57h-10v.634h-10v.723h-11v.82h-10v.86h-10v.714h-11v.626h-10v.926h-10v.906h-11v1.125h-10v1.285h-10v1.575h-11v2.097h-10v2.285h-10v2.532h-11v2.703h-10v2.11h-10v-1.286h-11v-1.355h-10v-1.44h-10v-1.53h-11v-1.617h-10v-1.743h-11v-1.85h-10v-1.993h-10v-2.14h-11v-2.302h-10v-2.48h-10v-2.692h-11v-2.914h-10v-3.2h-10v-3.5h-11v-3.844h-10v-4.238h-10v-4.73h-11v-5.266h-10v-5.934h-10v-6.742h-11v-7.69h-10v-3.204h-10v-3.793h-11V99.35h-10v-5.516h-10v-3.27h-11v-3.648h-10v-4.352h-10v-4.95h-11V72.56H96v-4.224H86v-6.004H75V58.86H65v-4.63zm0 0" fill="#54EC48"/><path d="M55 111.066V233.2h599V166.51h-10v.316h-10v-.016h-11v.426h-10v.22h-10v.253h-11v.317h-10v.332h-10v.71h-11v.508h-10v.856h-10v1.16h-11v1.12h-10v.407h-10v-1.347h-11v-1.42h-10v-1.486h-10V167.3h-11v-1.628h-10v-1.723h-10v-1.82h-11v-1.903h-10v.722h-10v1.07h-11v.507h-10v1.825h-10v-1.98h-11v-2.282h-10v-2.422h-11v-2.582h-10V152.3h-10v-2.972h-11v-3.21h-10v-.415h-10v.188h-11v.192h-10v.258h-10v-.172h-11v-.516h-10v-.507h-10v-.5h-11v-.45h-10v-.62h-10v.238h-11v-.89h-10v-.552h-10v-.683h-11v-1.035h-10v-1.21h-10v-.52h-11v-1.727h-10v-2.652h-10v-3.23h-11v-3.993H96v-5.304H86v-6.942H75v-3.355H65v-.654zm0 0" fill="#48C4EC"/><path d="M55 148.305V233.2h599v-55.595h-10v-.054h-10v-.058h-11v-.066h-10v-.028h-10v.075h-11v.007h-10v-.054h-10v-.078h-11v-.098h-10v-.043h-10v.035h-11v-.09h-10v-.082h-10v.06h-11v.022h-10v-.04h-10v-.026h-11v.055h-10v-.574h-10v-1.02h-11v.048h-10v.058h-10v.05h-11v.044h-10v.07h-10v.04h-11v.03h-10v-.222h-11v.035h-10v.054h-10v-.164h-11v-.04h-10v.02h-10v.028h-11v-.016h-10v-.012h-10v.09h-11v-.3h-10v.14h-10v.23h-11v-1.105h-10v-2.555h-10v-.097h-11v-.164h-10v-.208h-10v-.153h-11v-.208h-10v-.215h-10v-.02h-11v-.41h-10v.15h-10v-.74h-11v-9.093H96v-2.96H86v-3.888H75v-4.343H65v-1.418zm0 0" fill="#7648EC"/><g clip-path="url(#a)"><path d="M55 148.508h10v1.418h10v4.344h11v3.882h10v2.96h10v9.1h11v.733h10v-.148h10v.41h11v.023h10v.215h10v.203h11v.153h10v.208h10v.164h11v.098h10v2.554h10v1.11h11v-.235h10v-.14h10v.303h11v-.09h10v.008h10v.02h11v-.03h10v-.02h10v.04h11v.163h10v-.055h10v-.035h11v.227h10v-.035h11v-.04h10v-.07h10v-.043h11v-.05h10v-.06h10v-.046h11v1.02h10v.574h10v-.055h11v.028h10v.04h10v-.025h11v-.058h10v.082h10v.09h11v-.036h10v.043h10v.097h11v.082h10v.054h10v-.012h11v-.074h10v.027h10v.066h11v.06h10v.06h10" fill="none" stroke-linecap="round" stroke-linejoin="round" stroke="#4D18E4" stroke-miterlimit="10"/></g><g clip-path="url(#b)"><path d="M55 111.266h10v.656h10v3.355h11v6.942h10v5.3h10v3.992h11v3.23h10v2.653h10v1.726h11v.525h10v1.207h10v1.04h11v.678h10v.55h10v.892h11v-.24h10v.623h10v.45h11v.5h10v.507h10v.52h11v.167h10v-.26h10v-.19h11v-.188h10v.414h10v3.21h11v2.974h10v2.785h10v2.582h11v2.422h10v2.28h11v1.98h10v-1.823h10v-.504h11v-1.07h10v-.727h10v1.902h11v1.82h10v1.723h10v1.63h11v1.566h10v1.485h10v1.423h11v1.35h10v-.405h10v-1.12h11v-1.165h10v-.856h10v-.507h11v-.708h10v-.335h10v-.317h11v-.254h10v-.22h10v-.424h11v.015h10v-.316h10" fill="none" stroke-linecap="round" stroke-linejoin="round" stroke="#1598C3" stroke-miterlimit="10"/></g><g clip-path="url(#c)"><path d="M55 54.43h10v4.63h10v3.47h11v6.01h10v4.218h10v5.058h11v4.95h10v4.35h10v3.65h11v3.27h10v5.515h10v11.122h11v3.79h10v3.202h10v7.69h11v6.744h10v5.933h10v5.267h11v4.73h10v4.24h10v3.846h11v3.496h10v3.2h10v2.913h11v2.69h10v2.482h10v2.304h11v2.136h10v1.992h10v1.852h11v1.742h10v1.617h11v1.53h10v1.438h10v1.36h11v1.28h10v-2.105h10v-2.707h11v-2.53h10v-2.286h10v-2.098h11v-1.574h10v-1.286h10v-1.125h11v-.906h10v-.92h10v-.63h11v-.714h10v-.86h10v-.82h11v-.723h10v-.633h10v-.57h11v1.246h10v1.207h10v1.157h11v1.12h10v1.08h10" fill="none" stroke-linecap="round" stroke-linejoin="round" stroke="#24BC14" stroke-miterlimit="10"/></g><path d="M65 31v2M65 233v2" fill="none" stroke-width=".4" stroke="#8F8F8F" stroke-opacity=".75" stroke-miterlimit="10"/><path d="M65 234V32" fill="none" stroke-width=".4" stroke="#8F8F8F" stroke-opacity=".75" stroke-dasharray="1,1" stroke-miterlimit="10"/><path d="M75 31v2M75 233v2" fill="none" stroke-width=".4" stroke="#8F8F8F" stroke-opacity=".75" stroke-miterlimit="10"/><path d="M75 234V32" fill="none" stroke-width=".4" stroke="#8F8F8F" stroke-opacity=".75" stroke-dasharray="1,1" stroke-miterlimit="10"/><path d="M86 31v2M86 233v2" fill="none" stroke-width=".4" stroke="#8F8F8F" stroke-opacity=".75" stroke-miterlimit="10"/><path d="M86 234V32" fill="none" stroke-width=".4" stroke="#8F8F8F" stroke-opacity=".75" stroke-dasharray="1,1" stroke-miterlimit="10"/><path d="M96 31v2M96 233v2" fill="none" stroke-width=".4" stroke="#8F8F8F" stroke-opacity=".75" stroke-miterlimit="10"/><path d="M96 234V32" fill="none" stroke-width=".4" stroke="#8F8F8F" stroke-opacity=".75" stroke-dasharray="1,1" stroke-miterlimit="10"/><path d="M117 31v2M117 233v2" fill="none" stroke-width=".4" stroke="#8F8F8F" stroke-opacity=".75" stroke-miterlimit="10"/><path d="M117 234V32" fill="none" stroke-width=".4" stroke="#8F8F8F" stroke-opacity=".75" stroke-dasharray="1,1" stroke-miterlimit="10"/><path d="M127 31v2M127 233v2" fill="none" stroke-width=".4" stroke="#8F8F8F" stroke-opacity=".75" stroke-miterlimit="10"/><path d="M127 234V32" fill="none" stroke-width=".4" stroke="#8F8F8F" stroke-opacity=".75" stroke-dasharray="1,1" stroke-miterlimit="10"/><path d="M137 31v2M137 233v2" fill="none" stroke-width=".4" stroke="#8F8F8F" stroke-opacity=".75" stroke-miterlimit="10"/><path d="M137 234V32" fill="none" stroke-width=".4" stroke="#8F8F8F" stroke-opacity=".75" stroke-dasharray="1,1" stroke-miterlimit="10"/><path d="M148 31v2M148 233v2" fill="none" stroke-width=".4" stroke="#8F8F8F" stroke-opacity=".75" stroke-miterlimit="10"/><path d="M148 234V32" fill="none" stroke-width=".4" stroke="#8F8F8F" stroke-opacity=".75" stroke-dasharray="1,1" stroke-miterlimit="10"/><path d="M168 31v2M168 233v2" fill="none" stroke-width=".4" stroke="#8F8F8F" stroke-opacity=".75" stroke-miterlimit="10"/><path d="M168 234V32" fill="none" stroke-width=".4" stroke="#8F8F8F" stroke-opacity=".75" stroke-dasharray="1,1" stroke-miterlimit="10"/><path d="M179 31v2M179 233v2" fill="none" stroke-width=".4" stroke="#8F8F8F" stroke-opacity=".75" stroke-miterlimit="10"/><path d="M179 234V32" fill="none" stroke-width=".4" stroke="#8F8F8F" stroke-opacity=".75" stroke-dasharray="1,1" stroke-miterlimit="10"/><path d="M189 31v2M189 233v2" fill="none" stroke-width=".4" stroke="#8F8F8F" stroke-opacity=".75" stroke-miterlimit="10"/><path d="M189 234V32" fill="none" stroke-width=".4" stroke="#8F8F8F" stroke-opacity=".75" stroke-dasharray="1,1" stroke-miterlimit="10"/><path d="M199 31v2M199 233v2" fill="none" stroke-width=".4" stroke="#8F8F8F" stroke-opacity=".75" stroke-miterlimit="10"/><path d="M199 234V32" fill="none" stroke-width=".4" stroke="#8F8F8F" stroke-opacity=".75" stroke-dasharray="1,1" stroke-miterlimit="10"/><path d="M220 31v2M220 233v2" fill="none" stroke-width=".4" stroke="#8F8F8F" stroke-opacity=".75" stroke-miterlimit="10"/><path d="M220 234V32" fill="none" stroke-width=".4" stroke="#8F8F8F" stroke-opacity=".75" stroke-dasharray="1,1" stroke-miterlimit="10"/><path d="M230 31v2M230 233v2" fill="none" stroke-width=".4" stroke="#8F8F8F" stroke-opacity=".75" stroke-miterlimit="10"/><path d="M230 234V32" fill="none" stroke-width=".4" stroke="#8F8F8F" stroke-opacity=".75" stroke-dasharray="1,1" stroke-miterlimit="10"/><path d="M241 31v2M241 233v2" fill="none" stroke-width=".4" stroke="#8F8F8F" stroke-opacity=".75" stroke-miterlimit="10"/><path d="M241 234V32" fill="none" stroke-width=".4" stroke="#8F8F8F" stroke-opacity=".75" stroke-dasharray="1,1" stroke-miterlimit="10"/><path d="M251 31v2M251 233v2" fill="none" stroke-width=".4" stroke="#8F8F8F" stroke-opacity=".75" stroke-miterlimit="10"/><path d="M251 234V32" fill="none" stroke-width=".4" stroke="#8F8F8F" stroke-opacity=".75" stroke-dasharray="1,1" stroke-miterlimit="10"/><path d="M272 31v2M272 233v2" fill="none" stroke-width=".4" stroke="#8F8F8F" stroke-opacity=".75" stroke-miterlimit="10"/><path d="M272 234V32" fill="none" stroke-width=".4" stroke="#8F8F8F" stroke-opacity=".75" stroke-dasharray="1,1" stroke-miterlimit="10"/><path d="M282 31v2M282 233v2" fill="none" stroke-width=".4" stroke="#8F8F8F" stroke-opacity=".75" stroke-miterlimit="10"/><path d="M282 234V32" fill="none" stroke-width=".4" stroke="#8F8F8F" stroke-opacity=".75" stroke-dasharray="1,1" stroke-miterlimit="10"/><path d="M292 31v2M292 233v2" fill="none" stroke-width=".4" stroke="#8F8F8F" stroke-opacity=".75" stroke-miterlimit="10"/><path d="M292 234V32" fill="none" stroke-width=".4" stroke="#8F8F8F" stroke-opacity=".75" stroke-dasharray="1,1" stroke-miterlimit="10"/><path d="M303 31v2M303 233v2" fill="none" stroke-width=".4" stroke="#8F8F8F" stroke-opacity=".75" stroke-miterlimit="10"/><path d="M303 234V32" fill="none" stroke-width=".4" stroke="#8F8F8F" stroke-opacity=".75" stroke-dasharray="1,1" stroke-miterlimit="10"/><path d="M323 31v2M323 233v2" fill="none" stroke-width=".4" stroke="#8F8F8F" stroke-opacity=".75" stroke-miterlimit="10"/><path d="M323 234V32" fill="none" stroke-width=".4" stroke="#8F8F8F" stroke-opacity=".75" stroke-dasharray="1,1" stroke-miterlimit="10"/><path d="M334 31v2M334 233v2" fill="none" stroke-width=".4" stroke="#8F8F8F" stroke-opacity=".75" stroke-miterlimit="10"/><path d="M334 234V32" fill="none" stroke-width=".4" stroke="#8F8F8F" stroke-opacity=".75" stroke-dasharray="1,1" stroke-miterlimit="10"/><path d="M344 31v2M344 233v2" fill="none" stroke-width=".4" stroke="#8F8F8F" stroke-opacity=".75" stroke-miterlimit="10"/><path d="M344 234V32" fill="none" stroke-width=".4" stroke="#8F8F8F" stroke-opacity=".75" stroke-dasharray="1,1" stroke-miterlimit="10"/><path d="M355 31v2M355 233v2" fill="none" stroke-width=".4" stroke="#8F8F8F" stroke-opacity=".75" stroke-miterlimit="10"/><path d="M355 234V32" fill="none" stroke-width=".4" stroke="#8F8F8F" stroke-opacity=".75" stroke-dasharray="1,1" stroke-miterlimit="10"/><path d="M375 31v2M375 233v2" fill="none" stroke-width=".4" stroke="#8F8F8F" stroke-opacity=".75" stroke-miterlimit="10"/><path d="M375 234V32" fill="none" stroke-width=".4" stroke="#8F8F8F" stroke-opacity=".75" stroke-dasharray="1,1" stroke-miterlimit="10"/><path d="M386 31v2M386 233v2" fill="none" stroke-width=".4" stroke="#8F8F8F" stroke-opacity=".75" stroke-miterlimit="10"/><path d="M386 234V32" fill="none" stroke-width=".4" stroke="#8F8F8F" stroke-opacity=".75" stroke-dasharray="1,1" stroke-miterlimit="10"/><path d="M396 31v2M396 233v2" fill="none" stroke-width=".4" stroke="#8F8F8F" stroke-opacity=".75" stroke-miterlimit="10"/><path d="M396 234V32" fill="none" stroke-width=".4" stroke="#8F8F8F" stroke-opacity=".75" stroke-dasharray="1,1" stroke-miterlimit="10"/><path d="M406 31v2M406 233v2" fill="none" stroke-width=".4" stroke="#8F8F8F" stroke-opacity=".75" stroke-miterlimit="10"/><path d="M406 234V32" fill="none" stroke-width=".4" stroke="#8F8F8F" stroke-opacity=".75" stroke-dasharray="1,1" stroke-miterlimit="10"/><path d="M427 31v2M427 233v2" fill="none" stroke-width=".4" stroke="#8F8F8F" stroke-opacity=".75" stroke-miterlimit="10"/><path d="M427 234V32" fill="none" stroke-width=".4" stroke="#8F8F8F" stroke-opacity=".75" stroke-dasharray="1,1" stroke-miterlimit="10"/><path d="M437 31v2M437 233v2" fill="none" stroke-width=".4" stroke="#8F8F8F" stroke-opacity=".75" stroke-miterlimit="10"/><path d="M437 234V32" fill="none" stroke-width=".4" stroke="#8F8F8F" stroke-opacity=".75" stroke-dasharray="1,1" stroke-miterlimit="10"/><path d="M448 31v2M448 233v2" fill="none" stroke-width=".4" stroke="#8F8F8F" stroke-opacity=".75" stroke-miterlimit="10"/><path d="M448 234V32" fill="none" stroke-width=".4" stroke="#8F8F8F" stroke-opacity=".75" stroke-dasharray="1,1" stroke-miterlimit="10"/><path d="M458 31v2M458 233v2" fill="none" stroke-width=".4" stroke="#8F8F8F" stroke-opacity=".75" stroke-miterlimit="10"/><path d="M458 234V32" fill="none" stroke-width=".4" stroke="#8F8F8F" stroke-opacity=".75" stroke-dasharray="1,1" stroke-miterlimit="10"/><path d="M479 31v2M479 233v2" fill="none" stroke-width=".4" stroke="#8F8F8F" stroke-opacity=".75" stroke-miterlimit="10"/><path d="M479 234V32" fill="none" stroke-width=".4" stroke="#8F8F8F" stroke-opacity=".75" stroke-dasharray="1,1" stroke-miterlimit="10"/><path d="M489 31v2M489 233v2" fill="none" stroke-width=".4" stroke="#8F8F8F" stroke-opacity=".75" stroke-miterlimit="10"/><path d="M489 234V32" fill="none" stroke-width=".4" stroke="#8F8F8F" stroke-opacity=".75" stroke-dasharray="1,1" stroke-miterlimit="10"/><path d="M499 31v2M499 233v2" fill="none" stroke-width=".4" stroke="#8F8F8F" stroke-opacity=".75" stroke-miterlimit="10"/><path d="M499 234V32" fill="none" stroke-width=".4" stroke="#8F8F8F" stroke-opacity=".75" stroke-dasharray="1,1" stroke-miterlimit="10"/><path d="M510 31v2M510 233v2" fill="none" stroke-width=".4" stroke="#8F8F8F" stroke-opacity=".75" stroke-miterlimit="10"/><path d="M510 234V32" fill="none" stroke-width=".4" stroke="#8F8F8F" stroke-opacity=".75" stroke-dasharray="1,1" stroke-miterlimit="10"/><path d="M530 31v2M530 233v2" fill="none" stroke-width=".4" stroke="#8F8F8F" stroke-opacity=".75" stroke-miterlimit="10"/><path d="M530 234V32" fill="none" stroke-width=".4" stroke="#8F8F8F" stroke-opacity=".75" stroke-dasharray="1,1" stroke-miterlimit="10"/><path d="M541 31v2M541 233v2" fill="none" stroke-width=".4" stroke="#8F8F8F" stroke-opacity=".75" stroke-miterlimit="10"/><path d="M541 234V32" fill="none" stroke-width=".4" stroke="#8F8F8F" stroke-opacity=".75" stroke-dasharray="1,1" stroke-miterlimit="10"/><path d="M551 31v2M551 233v2" fill="none" stroke-width=".4" stroke="#8F8F8F" stroke-opacity=".75" stroke-miterlimit="10"/><path d="M551 234V32" fill="none" stroke-width=".4" stroke="#8F8F8F" stroke-opacity=".75" stroke-dasharray="1,1" stroke-miterlimit="10"/><path d="M561 31v2M561 233v2" fill="none" stroke-width=".4" stroke="#8F8F8F" stroke-opacity=".75" stroke-miterlimit="10"/><path d="M561 234V32" fill="none" stroke-width=".4" stroke="#8F8F8F" stroke-opacity=".75" stroke-dasharray="1,1" stroke-miterlimit="10"/><path d="M582 31v2M582 233v2" fill="none" stroke-width=".4" stroke="#8F8F8F" stroke-opacity=".75" stroke-miterlimit="10"/><path d="M582 234V32" fill="none" stroke-width=".4" stroke="#8F8F8F" stroke-opacity=".75" stroke-dasharray="1,1" stroke-miterlimit="10"/><path d="M592 31v2M592 233v2" fill="none" stroke-width=".4" stroke="#8F8F8F" stroke-opacity=".75" stroke-miterlimit="10"/><path d="M592 234V32" fill="none" stroke-width=".4" stroke="#8F8F8F" stroke-opacity=".75" stroke-dasharray="1,1" stroke-miterlimit="10"/><path d="M603 31v2M603 233v2" fill="none" stroke-width=".4" stroke="#8F8F8F" stroke-opacity=".75" stroke-miterlimit="10"/><path d="M603 234V32" fill="none" stroke-width=".4" stroke="#8F8F8F" stroke-opacity=".75" stroke-dasharray="1,1" stroke-miterlimit="10"/><path d="M613 31v2M613 233v2" fill="none" stroke-width=".4" stroke="#8F8F8F" stroke-opacity=".75" stroke-miterlimit="10"/><path d="M613 234V32" fill="none" stroke-width=".4" stroke="#8F8F8F" stroke-opacity=".75" stroke-dasharray="1,1" stroke-miterlimit="10"/><path d="M634 31v2M634 233v2" fill="none" stroke-width=".4" stroke="#8F8F8F" stroke-opacity=".75" stroke-miterlimit="10"/><path d="M634 234V32" fill="none" stroke-width=".4" stroke="#8F8F8F" stroke-opacity=".75" stroke-dasharray="1,1" stroke-miterlimit="10"/><path d="M644 31v2M644 233v2" fill="none" stroke-width=".4" stroke="#8F8F8F" stroke-opacity=".75" stroke-miterlimit="10"/><path d="M644 234V32" fill="none" stroke-width=".4" stroke="#8F8F8F" stroke-opacity=".75" stroke-dasharray="1,1" stroke-miterlimit="10"/><path d="M55 31v2M55 233v3" fill="none" stroke-width=".6" stroke="#DE4F4F" stroke-opacity=".6" stroke-miterlimit="10"/><path d="M55 236V31" fill="none" stroke-width=".6" stroke="#DE4F4F" stroke-opacity=".6" stroke-dasharray="1,1" stroke-miterlimit="10"/><path d="M106 31v2M106 233v3" fill="none" stroke-width=".6" stroke="#DE4F4F" stroke-opacity=".6" stroke-miterlimit="10"/><path d="M106 236V31" fill="none" stroke-width=".6" stroke="#DE4F4F" stroke-opacity=".6" stroke-dasharray="1,1" stroke-miterlimit="10"/><path d="M158 31v2M158 233v3" fill="none" stroke-width=".6" stroke="#DE4F4F" stroke-opacity=".6" stroke-miterlimit="10"/><path d="M158 236V31" fill="none" stroke-width=".6" stroke="#DE4F4F" stroke-opacity=".6" stroke-dasharray="1,1" stroke-miterlimit="10"/><path d="M210 31v2M210 233v3" fill="none" stroke-width=".6" stroke="#DE4F4F" stroke-opacity=".6" stroke-miterlimit="10"/><path d="M210 236V31" fill="none" stroke-width=".6" stroke="#DE4F4F" stroke-opacity=".6" stroke-dasharray="1,1" stroke-miterlimit="10"/><path d="M261 31v2M261 233v3" fill="none" stroke-width=".6" stroke="#DE4F4F" stroke-opacity=".6" stroke-miterlimit="10"/><path d="M261 236V31" fill="none" stroke-width=".6" stroke="#DE4F4F" stroke-opacity=".6" stroke-dasharray="1,1" stroke-miterlimit="10"/><path d="M313 31v2M313 233v3" fill="none" stroke-width=".6" stroke="#DE4F4F" stroke-opacity=".6" stroke-miterlimit="10"/><path d="M313 236V31" fill="none" stroke-width=".6" stroke="#DE4F4F" stroke-opacity=".6" stroke-dasharray="1,1" stroke-miterlimit="10"/><path d="M365 31v2M365 233v3" fill="none" stroke-width=".6" stroke="#DE4F4F" stroke-opacity=".6" stroke-miterlimit="10"/><path d="M365 236V31" fill="none" stroke-width=".6" stroke="#DE4F4F" stroke-opacity=".6" stroke-dasharray="1,1" stroke-miterlimit="10"/><path d="M417 31v2M417 233v3" fill="none" stroke-width=".6" stroke="#DE4F4F" stroke-opacity=".6" stroke-miterlimit="10"/><path d="M417 236V31" fill="none" stroke-width=".6" stroke="#DE4F4F" stroke-opacity=".6" stroke-dasharray="1,1" stroke-miterlimit="10"/><path d="M468 31v2M468 233v3" fill="none" stroke-width=".6" stroke="#DE4F4F" stroke-opacity=".6" stroke-miterlimit="10"/><path d="M468 236V31" fill="none" stroke-width=".6" stroke="#DE4F4F" stroke-opacity=".6" stroke-dasharray="1,1" stroke-miterlimit="10"/><path d="M520 31v2M520 233v3" fill="none" stroke-width=".6" stroke="#DE4F4F" stroke-opacity=".6" stroke-miterlimit="10"/><path d="M520 236V31" fill="none" stroke-width=".6" stroke="#DE4F4F" stroke-opacity=".6" stroke-dasharray="1,1" stroke-miterlimit="10"/><path d="M572 31v2M572 233v3" fill="none" stroke-width=".6" stroke="#DE4F4F" stroke-opacity=".6" stroke-miterlimit="10"/><path d="M572 236V31" fill="none" stroke-width=".6" stroke="#DE4F4F" stroke-opacity=".6" stroke-dasharray="1,1" stroke-miterlimit="10"/><path d="M623 31v2M623 233v3" fill="none" stroke-width=".6" stroke="#DE4F4F" stroke-opacity=".6" stroke-miterlimit="10"/><path d="M623 236V31" fill="none" stroke-width=".6" stroke="#DE4F4F" stroke-opacity=".6" stroke-dasharray="1,1" stroke-miterlimit="10"/><use xlink:href="#d" x="40" y="241.199"/><use xlink:href="#d" x="43.849" y="241.199"/><use xlink:href="#e" x="47.697" y="241.199"/><use xlink:href="#d" x="51.546" y="241.199"/><use xlink:href="#d" x="55.395" y="241.199"/><use xlink:href="#e" x="59.243" y="241.199"/><use xlink:href="#d" x="63.092" y="241.199"/><use xlink:href="#d" x="66.94" y="241.199"/><use xlink:href="#d" x="143" y="241.199"/><use xlink:href="#d" x="146.849" y="241.199"/><use xlink:href="#e" x="150.697" y="241.199"/><use xlink:href="#d" x="154.546" y="241.199"/><use xlink:href="#d" x="158.395" y="241.199"/><use xlink:href="#e" x="162.243" y="241.199"/><use xlink:href="#f" x="166.092" y="241.199"/><use xlink:href="#d" x="169.94" y="241.199"/><use xlink:href="#d" x="246" y="241.199"/><use xlink:href="#d" x="249.849" y="241.199"/><use xlink:href="#e" x="253.697" y="241.199"/><use xlink:href="#d" x="257.546" y="241.199"/><use xlink:href="#d" x="261.395" y="241.199"/><use xlink:href="#e" x="265.243" y="241.199"/><use xlink:href="#g" x="269.092" y="241.199"/><use xlink:href="#d" x="272.94" y="241.199"/><use xlink:href="#d" x="350" y="241.199"/><use xlink:href="#d" x="353.849" y="241.199"/><use xlink:href="#e" x="357.697" y="241.199"/><use xlink:href="#d" x="361.546" y="241.199"/><use xlink:href="#d" x="365.395" y="241.199"/><use xlink:href="#e" x="369.243" y="241.199"/><use xlink:href="#h" x="373.092" y="241.199"/><use xlink:href="#d" x="376.94" y="241.199"/><use xlink:href="#d" x="453" y="241.199"/><use xlink:href="#d" x="456.849" y="241.199"/><use xlink:href="#e" x="460.697" y="241.199"/><use xlink:href="#d" x="464.546" y="241.199"/><use xlink:href="#d" x="468.395" y="241.199"/><use xlink:href="#e" x="472.243" y="241.199"/><use xlink:href="#i" x="476.092" y="241.199"/><use xlink:href="#d" x="479.94" y="241.199"/><use xlink:href="#d" x="557" y="241.199"/><use xlink:href="#d" x="560.849" y="241.199"/><use xlink:href="#e" x="564.697" y="241.199"/><use xlink:href="#d" x="568.546" y="241.199"/><use xlink:href="#d" x="572.395" y="241.199"/><use xlink:href="#e" x="576.243" y="241.199"/><use xlink:href="#j" x="580.092" y="241.199"/><use xlink:href="#d" x="583.94" y="241.199"/><use xlink:href="#k" x="24" y="235.199"/><use xlink:href="#k" x="27.849" y="235.199"/><use xlink:href="#k" x="31.697" y="235.199"/><use xlink:href="#d" x="35.546" y="235.199"/><use xlink:href="#k" x="39.395" y="235.199"/><use xlink:href="#k" x="43.243" y="235.199"/><path d="M53 233h2M655 233h2" fill="none" stroke-width=".6" stroke="#DE4F4F" stroke-opacity=".6" stroke-miterlimit="10"/><path d="M53 233h604" fill="none" stroke-width=".6" stroke="#DE4F4F" stroke-opacity=".6" stroke-dasharray="1,1" stroke-miterlimit="10"/><path d="M53 225.855h2M655 225.855h2" fill="none" stroke-width=".4" stroke="#8F8F8F" stroke-opacity=".75" stroke-miterlimit="10"/><path d="M54 225.855h602" fill="none" stroke-width=".4" stroke="#8F8F8F" stroke-opacity=".75" stroke-dasharray="1,1" stroke-miterlimit="10"/><use xlink:href="#k" x="24" y="220.914"/><use xlink:href="#k" x="27.849" y="220.914"/><use xlink:href="#f" x="31.697" y="220.914"/><use xlink:href="#d" x="35.546" y="220.914"/><use xlink:href="#k" x="39.395" y="220.914"/><use xlink:href="#l" x="43.243" y="220.914"/><path d="M53 218.715h2M655 218.715h2" fill="none" stroke-width=".6" stroke="#DE4F4F" stroke-opacity=".6" stroke-miterlimit="10"/><path d="M53 218.715h604" fill="none" stroke-width=".6" stroke="#DE4F4F" stroke-opacity=".6" stroke-dasharray="1,1" stroke-miterlimit="10"/><path d="M53 211.57h2M655 211.57h2" fill="none" stroke-width=".4" stroke="#8F8F8F" stroke-opacity=".75" stroke-miterlimit="10"/><path d="M54 211.57h602" fill="none" stroke-width=".4" stroke="#8F8F8F" stroke-opacity=".75" stroke-dasharray="1,1" stroke-miterlimit="10"/><use xlink:href="#k" x="24" y="206.629"/><use xlink:href="#k" x="27.849" y="206.629"/><use xlink:href="#g" x="31.697" y="206.629"/><use xlink:href="#d" x="35.546" y="206.629"/><use xlink:href="#k" x="39.395" y="206.629"/><use xlink:href="#l" x="43.243" y="206.629"/><path d="M53 204.43h2M655 204.43h2" fill="none" stroke-width=".6" stroke="#DE4F4F" stroke-opacity=".6" stroke-miterlimit="10"/><path d="M53 204.43h604" fill="none" stroke-width=".6" stroke="#DE4F4F" stroke-opacity=".6" stroke-dasharray="1,1" stroke-miterlimit="10"/><path d="M53 197.285h2M655 197.285h2" fill="none" stroke-width=".4" stroke="#8F8F8F" stroke-opacity=".75" stroke-miterlimit="10"/><path d="M54 197.285h602" fill="none" stroke-width=".4" stroke="#8F8F8F" stroke-opacity=".75" stroke-dasharray="1,1" stroke-miterlimit="10"/><use xlink:href="#k" x="24" y="192.344"/><use xlink:href="#k" x="27.849" y="192.344"/><use xlink:href="#h" x="31.697" y="192.344"/><use xlink:href="#d" x="35.546" y="192.344"/><use xlink:href="#k" x="39.395" y="192.344"/><use xlink:href="#l" x="43.243" y="192.344"/><path d="M53 190.145h2M655 190.145h2" fill="none" stroke-width=".6" stroke="#DE4F4F" stroke-opacity=".6" stroke-miterlimit="10"/><path d="M53 190.145h604" fill="none" stroke-width=".6" stroke="#DE4F4F" stroke-opacity=".6" stroke-dasharray="1,1" stroke-miterlimit="10"/><path d="M53 183h2M655 183h2" fill="none" stroke-width=".4" stroke="#8F8F8F" stroke-opacity=".75" stroke-miterlimit="10"/><path d="M54 183h602" fill="none" stroke-width=".4" stroke="#8F8F8F" stroke-opacity=".75" stroke-dasharray="1,1" stroke-miterlimit="10"/><use xlink:href="#k" x="24" y="178.055"/><use xlink:href="#k" x="27.849" y="178.055"/><use xlink:href="#i" x="31.697" y="178.055"/><use xlink:href="#d" x="35.546" y="178.055"/><use xlink:href="#k" x="39.395" y="178.055"/><use xlink:href="#l" x="43.243" y="178.055"/><path d="M53 175.855h2M655 175.855h2" fill="none" stroke-width=".6" stroke="#DE4F4F" stroke-opacity=".6" stroke-miterlimit="10"/><path d="M53 175.855h604" fill="none" stroke-width=".6" stroke="#DE4F4F" stroke-opacity=".6" stroke-dasharray="1,1" stroke-miterlimit="10"/><path d="M53 168.715h2M655 168.715h2" fill="none" stroke-width=".4" stroke="#8F8F8F" stroke-opacity=".75" stroke-miterlimit="10"/><path d="M54 168.715h602" fill="none" stroke-width=".4" stroke="#8F8F8F" stroke-opacity=".75" stroke-dasharray="1,1" stroke-miterlimit="10"/><use xlink:href="#k" x="24" y="163.77"/><use xlink:href="#k" x="27.849" y="163.77"/><use xlink:href="#j" x="31.697" y="163.77"/><use xlink:href="#d" x="35.546" y="163.77"/><use xlink:href="#k" x="39.395" y="163.77"/><use xlink:href="#l" x="43.243" y="163.77"/><path d="M53 161.57h2M655 161.57h2" fill="none" stroke-width=".6" stroke="#DE4F4F" stroke-opacity=".6" stroke-miterlimit="10"/><path d="M53 161.57h604" fill="none" stroke-width=".6" stroke="#DE4F4F" stroke-opacity=".6" stroke-dasharray="1,1" stroke-miterlimit="10"/><path d="M53 154.43h2M655 154.43h2" fill="none" stroke-width=".4" stroke="#8F8F8F" stroke-opacity=".75" stroke-miterlimit="10"/><path d="M54 154.43h602" fill="none" stroke-width=".4" stroke="#8F8F8F" stroke-opacity=".75" stroke-dasharray="1,1" stroke-miterlimit="10"/><use xlink:href="#k" x="24" y="149.484"/><use xlink:href="#k" x="27.849" y="149.484"/><use xlink:href="#m" x="31.697" y="149.484"/><use xlink:href="#d" x="35.546" y="149.484"/><use xlink:href="#k" x="39.395" y="149.484"/><use xlink:href="#l" x="43.243" y="149.484"/><path d="M53 147.285h2M655 147.285h2" fill="none" stroke-width=".6" stroke="#DE4F4F" stroke-opacity=".6" stroke-miterlimit="10"/><path d="M53 147.285h604" fill="none" stroke-width=".6" stroke="#DE4F4F" stroke-opacity=".6" stroke-dasharray="1,1" stroke-miterlimit="10"/><path d="M53 140.145h2M655 140.145h2" fill="none" stroke-width=".4" stroke="#8F8F8F" stroke-opacity=".75" stroke-miterlimit="10"/><path d="M54 140.145h602" fill="none" stroke-width=".4" stroke="#8F8F8F" stroke-opacity=".75" stroke-dasharray="1,1" stroke-miterlimit="10"/><use xlink:href="#k" x="24" y="135.199"/><use xlink:href="#k" x="27.849" y="135.199"/><use xlink:href="#n" x="31.697" y="135.199"/><use xlink:href="#d" x="35.546" y="135.199"/><use xlink:href="#k" x="39.395" y="135.199"/><use xlink:href="#l" x="43.243" y="135.199"/><path d="M53 133h2M655 133h2" fill="none" stroke-width=".6" stroke="#DE4F4F" stroke-opacity=".6" stroke-miterlimit="10"/><path d="M53 133h604" fill="none" stroke-width=".6" stroke="#DE4F4F" stroke-opacity=".6" stroke-dasharray="1,1" stroke-miterlimit="10"/><path d="M53 125.855h2M655 125.855h2" fill="none" stroke-width=".4" stroke="#8F8F8F" stroke-opacity=".75" stroke-miterlimit="10"/><path d="M54 125.855h602" fill="none" stroke-width=".4" stroke="#8F8F8F" stroke-opacity=".75" stroke-dasharray="1,1" stroke-miterlimit="10"/><g><use xlink:href="#k" x="24" y="120.914"/><use xlink:href="#k" x="27.849" y="120.914"/><use xlink:href="#o" x="31.697" y="120.914"/><use xlink:href="#d" x="35.546" y="120.914"/><use xlink:href="#k" x="39.395" y="120.914"/><use xlink:href="#l" x="43.243" y="120.914"/></g><path d="M53 118.715h2M655 118.715h2" fill="none" stroke-width=".6" stroke="#DE4F4F" stroke-opacity=".6" stroke-miterlimit="10"/><path d="M53 118.715h604" fill="none" stroke-width=".6" stroke="#DE4F4F" stroke-opacity=".6" stroke-dasharray="1,1" stroke-miterlimit="10"/><path d="M53 111.57h2M655 111.57h2" fill="none" stroke-width=".4" stroke="#8F8F8F" stroke-opacity=".75" stroke-miterlimit="10"/><path d="M54 111.57h602" fill="none" stroke-width=".4" stroke="#8F8F8F" stroke-opacity=".75" stroke-dasharray="1,1" stroke-miterlimit="10"/><g><use xlink:href="#k" x="24" y="106.629"/><use xlink:href="#k" x="27.849" y="106.629"/><use xlink:href="#p" x="31.697" y="106.629"/><use xlink:href="#d" x="35.546" y="106.629"/><use xlink:href="#k" x="39.395" y="106.629"/><use xlink:href="#l" x="43.243" y="106.629"/></g><path d="M53 104.43h2M655 104.43h2" fill="none" stroke-width=".6" stroke="#DE4F4F" stroke-opacity=".6" stroke-miterlimit="10"/><path d="M53 104.43h604" fill="none" stroke-width=".6" stroke="#DE4F4F" stroke-opacity=".6" stroke-dasharray="1,1" stroke-miterlimit="10"/><path d="M53 97.285h2M655 97.285h2" fill="none" stroke-width=".4" stroke="#8F8F8F" stroke-opacity=".75" stroke-miterlimit="10"/><path d="M54 97.285h602" fill="none" stroke-width=".4" stroke="#8F8F8F" stroke-opacity=".75" stroke-dasharray="1,1" stroke-miterlimit="10"/><g><use xlink:href="#k" x="24" y="92.344"/><use xlink:href="#f" x="27.849" y="92.344"/><use xlink:href="#d" x="31.697" y="92.344"/><use xlink:href="#d" x="35.546" y="92.344"/><use xlink:href="#k" x="39.395" y="92.344"/><use xlink:href="#l" x="43.243" y="92.344"/></g><path d="M53 90.145h2M655 90.145h2" fill="none" stroke-width=".6" stroke="#DE4F4F" stroke-opacity=".6" stroke-miterlimit="10"/><path d="M53 90.145h604" fill="none" stroke-width=".6" stroke="#DE4F4F" stroke-opacity=".6" stroke-dasharray="1,1" stroke-miterlimit="10"/><path d="M53 83h2M655 83h2" fill="none" stroke-width=".4" stroke="#8F8F8F" stroke-opacity=".75" stroke-miterlimit="10"/><path d="M54 83h602" fill="none" stroke-width=".4" stroke="#8F8F8F" stroke-opacity=".75" stroke-dasharray="1,1" stroke-miterlimit="10"/><g><use xlink:href="#k" x="24" y="78.055"/><use xlink:href="#f" x="27.849" y="78.055"/><use xlink:href="#f" x="31.697" y="78.055"/><use xlink:href="#d" x="35.546" y="78.055"/><use xlink:href="#k" x="39.395" y="78.055"/><use xlink:href="#l" x="43.243" y="78.055"/></g><path d="M53 75.855h2M655 75.855h2" fill="none" stroke-width=".6" stroke="#DE4F4F" stroke-opacity=".6" stroke-miterlimit="10"/><path d="M53 75.855h604" fill="none" stroke-width=".6" stroke="#DE4F4F" stroke-opacity=".6" stroke-dasharray="1,1" stroke-miterlimit="10"/><path d="M53 68.715h2M655 68.715h2" fill="none" stroke-width=".4" stroke="#8F8F8F" stroke-opacity=".75" stroke-miterlimit="10"/><path d="M54 68.715h602" fill="none" stroke-width=".4" stroke="#8F8F8F" stroke-opacity=".75" stroke-dasharray="1,1" stroke-miterlimit="10"/><g><use xlink:href="#k" x="24" y="63.77"/><use xlink:href="#f" x="27.849" y="63.77"/><use xlink:href="#g" x="31.697" y="63.77"/><use xlink:href="#d" x="35.546" y="63.77"/><use xlink:href="#k" x="39.395" y="63.77"/><use xlink:href="#l" x="43.243" y="63.77"/></g><path d="M53 61.57h2M655 61.57h2" fill="none" stroke-width=".6" stroke="#DE4F4F" stroke-opacity=".6" stroke-miterlimit="10"/><path d="M53 61.57h604" fill="none" stroke-width=".6" stroke="#DE4F4F" stroke-opacity=".6" stroke-dasharray="1,1" stroke-miterlimit="10"/><path d="M53 54.43h2M655 54.43h2" fill="none" stroke-width=".4" stroke="#8F8F8F" stroke-opacity=".75" stroke-miterlimit="10"/><path d="M54 54.43h602" fill="none" stroke-width=".4" stroke="#8F8F8F" stroke-opacity=".75" stroke-dasharray="1,1" stroke-miterlimit="10"/><g><use xlink:href="#k" x="24" y="49.484"/><use xlink:href="#f" x="27.849" y="49.484"/><use xlink:href="#h" x="31.697" y="49.484"/><use xlink:href="#d" x="35.546" y="49.484"/><use xlink:href="#k" x="39.395" y="49.484"/><use xlink:href="#l" x="43.243" y="49.484"/></g><path d="M53 47.285h2M655 47.285h2" fill="none" stroke-width=".6" stroke="#DE4F4F" stroke-opacity=".6" stroke-miterlimit="10"/><path d="M53 47.285h604" fill="none" stroke-width=".6" stroke="#DE4F4F" stroke-opacity=".6" stroke-dasharray="1,1" stroke-miterlimit="10"/><path d="M53 40.145h2M655 40.145h2" fill="none" stroke-width=".4" stroke="#8F8F8F" stroke-opacity=".75" stroke-miterlimit="10"/><path d="M54 40.145h602" fill="none" stroke-width=".4" stroke="#8F8F8F" stroke-opacity=".75" stroke-dasharray="1,1" stroke-miterlimit="10"/><g><use xlink:href="#k" x="24" y="35.199"/><use xlink:href="#f" x="27.849" y="35.199"/><use xlink:href="#i" x="31.697" y="35.199"/><use xlink:href="#d" x="35.546" y="35.199"/><use xlink:href="#k" x="39.395" y="35.199"/><use xlink:href="#l" x="43.243" y="35.199"/></g><path d="M53 33h2M655 33h2" fill="none" stroke-width=".6" stroke="#DE4F4F" stroke-opacity=".6" stroke-miterlimit="10"/><path d="M53 33h604" fill="none" stroke-width=".6" stroke="#DE4F4F" stroke-opacity=".6" stroke-dasharray="1,1" stroke-miterlimit="10"/><g><use xlink:href="#q" x="11.941" y="175"/><use xlink:href="#r" x="11.941" y="170.602"/><use xlink:href="#s" x="11.941" y="166.203"/><use xlink:href="#t" x="11.941" y="161.805"/><use xlink:href="#r" x="11.941" y="157.406"/><use xlink:href="#u" x="11.941" y="153.008"/><use xlink:href="#v" x="11.941" y="148.609"/><use xlink:href="#u" x="11.941" y="144.211"/><use xlink:href="#w" x="11.941" y="139.813"/><use xlink:href="#x" x="11.941" y="135.414"/><use xlink:href="#r" x="11.941" y="131.016"/><use xlink:href="#q" x="11.941" y="126.617"/><use xlink:href="#w" x="11.941" y="122.219"/><use xlink:href="#u" x="11.941" y="117.82"/><use xlink:href="#r" x="11.941" y="113.422"/><use xlink:href="#y" x="11.941" y="109.023"/><use xlink:href="#z" x="11.941" y="104.625"/><use xlink:href="#A" x="11.941" y="100.227"/><use xlink:href="#B" x="11.941" y="95.828"/></g><g><use xlink:href="#C" x="305" y="12.685"/><use xlink:href="#D" x="309.948" y="12.685"/><use xlink:href="#E" x="314.896" y="12.685"/><use xlink:href="#F" x="319.845" y="12.685"/><use xlink:href="#D" x="324.793" y="12.685"/><use xlink:href="#G" x="329.741" y="12.685"/><use xlink:href="#H" x="334.689" y="12.685"/><use xlink:href="#I" x="339.638" y="12.685"/><use xlink:href="#J" x="344.586" y="12.685"/><use xlink:href="#K" x="349.534" y="12.685"/><use xlink:href="#H" x="354.482" y="12.685"/><use xlink:href="#L" x="359.431" y="12.685"/><use xlink:href="#M" x="364.379" y="12.685"/><use xlink:href="#I" x="369.327" y="12.685"/><use xlink:href="#N" x="374.275" y="12.685"/></g><g><use xlink:href="#O" x="16" y="263.941"/><use xlink:href="#O" x="20.398" y="263.941"/><use xlink:href="#O" x="24.797" y="263.941"/><use xlink:href="#P" x="29.195" y="263.941"/><use xlink:href="#Q" x="33.594" y="263.941"/><use xlink:href="#R" x="37.992" y="263.941"/><use xlink:href="#S" x="42.391" y="263.941"/><use xlink:href="#Q" x="46.789" y="263.941"/><use xlink:href="#T" x="51.188" y="263.941"/></g><path d="M16 257.602v6h6v-6zm0 0" fill="#F2F2F2"/><path d="M16 257.602v6h6v-6zm0 0" fill="#54EC48"/><path d="M16 263.602h6v-6h-6zm0 0" fill="none" stroke="#000" stroke-miterlimit="10"/><g><use xlink:href="#U" x="436" y="263.941"/><use xlink:href="#V" x="440.398" y="263.941"/><use xlink:href="#W" x="444.797" y="263.941"/><use xlink:href="#O" x="449.195" y="263.941"/><use xlink:href="#O" x="453.594" y="263.941"/><use xlink:href="#X" x="457.992" y="263.941"/><use xlink:href="#Y" x="462.391" y="263.941"/><use xlink:href="#Z" x="466.789" y="263.941"/><use xlink:href="#Z" x="471.188" y="263.941"/><use xlink:href="#aa" x="475.586" y="263.941"/></g><g><use xlink:href="#ab" x="496" y="263.941"/><use xlink:href="#ac" x="500.398" y="263.941"/><use xlink:href="#ad" x="504.797" y="263.941"/><use xlink:href="#O" x="509.195" y="263.941"/><use xlink:href="#O" x="513.594" y="263.941"/><use xlink:href="#ae" x="517.992" y="263.941"/><use xlink:href="#Z" x="522.391" y="263.941"/><use xlink:href="#ae" x="526.789" y="263.941"/><use xlink:href="#Y" x="531.188" y="263.941"/><use xlink:href="#X" x="535.586" y="263.941"/></g><g><use xlink:href="#ab" x="556" y="263.941"/><use xlink:href="#U" x="560.398" y="263.941"/><use xlink:href="#af" x="564.797" y="263.941"/><use xlink:href="#O" x="569.195" y="263.941"/><use xlink:href="#Z" x="573.594" y="263.941"/><use xlink:href="#aa" x="577.992" y="263.941"/><use xlink:href="#ag" x="582.391" y="263.941"/><use xlink:href="#Y" x="586.789" y="263.941"/><use xlink:href="#Y" x="591.188" y="263.941"/><use xlink:href="#ah" x="595.586" y="263.941"/></g><g><use xlink:href="#ai" x="616" y="263.941"/><use xlink:href="#aj" x="620.398" y="263.941"/><use xlink:href="#ak" x="624.797" y="263.941"/><use xlink:href="#al" x="629.195" y="263.941"/><use xlink:href="#V" x="633.594" y="263.941"/><use xlink:href="#O" x="637.992" y="263.941"/><use xlink:href="#O" x="642.391" y="263.941"/><use xlink:href="#aa" x="646.789" y="263.941"/><use xlink:href="#am" x="651.188" y="263.941"/><use xlink:href="#ae" x="655.586" y="263.941"/><use xlink:href="#an" x="659.984" y="263.941"/><use xlink:href="#ag" x="664.383" y="263.941"/></g><g><use xlink:href="#O" x="16" y="277.941"/><use xlink:href="#O" x="20.398" y="277.941"/><use xlink:href="#O" x="24.797" y="277.941"/><use xlink:href="#ao" x="29.195" y="277.941"/><use xlink:href="#ap" x="33.594" y="277.941"/><use xlink:href="#aq" x="37.992" y="277.941"/><use xlink:href="#ar" x="42.391" y="277.941"/></g><path d="M16 271.602v6h6v-6zm0 0" fill="#F2F2F2"/><path d="M16 271.602v6h6v-6zm0 0" fill="#48C4EC"/><path d="M16 277.602h6v-6h-6zm0 0" fill="none" stroke="#000" stroke-miterlimit="10"/><g><use xlink:href="#U" x="436" y="276.941"/><use xlink:href="#V" x="440.398" y="276.941"/><use xlink:href="#W" x="444.797" y="276.941"/><use xlink:href="#O" x="449.195" y="276.941"/><use xlink:href="#O" x="453.594" y="276.941"/><use xlink:href="#X" x="457.992" y="276.941"/><use xlink:href="#as" x="462.391" y="276.941"/><use xlink:href="#an" x="466.789" y="276.941"/><use xlink:href="#an" x="471.188" y="276.941"/><use xlink:href="#X" x="475.586" y="276.941"/></g><g><use xlink:href="#ab" x="496" y="276.941"/><use xlink:href="#ac" x="500.398" y="276.941"/><use xlink:href="#ad" x="504.797" y="276.941"/><use xlink:href="#O" x="509.195" y="276.941"/><use xlink:href="#O" x="513.594" y="276.941"/><use xlink:href="#ag" x="517.992" y="276.941"/><use xlink:href="#Z" x="522.391" y="276.941"/><use xlink:href="#am" x="526.789" y="276.941"/><use xlink:href="#am" x="531.188" y="276.941"/><use xlink:href="#ag" x="535.586" y="276.941"/></g><g><use xlink:href="#ab" x="556" y="276.941"/><use xlink:href="#U" x="560.398" y="276.941"/><use xlink:href="#af" x="564.797" y="276.941"/><use xlink:href="#O" x="569.195" y="276.941"/><use xlink:href="#O" x="573.594" y="276.941"/><use xlink:href="#ah" x="577.992" y="276.941"/><use xlink:href="#X" x="582.391" y="276.941"/><use xlink:href="#aa" x="586.789" y="276.941"/><use xlink:href="#Z" x="591.188" y="276.941"/><use xlink:href="#ag" x="595.586" y="276.941"/></g><g><use xlink:href="#ai" x="616" y="276.941"/><use xlink:href="#aj" x="620.398" y="276.941"/><use xlink:href="#ak" x="624.797" y="276.941"/><use xlink:href="#al" x="629.195" y="276.941"/><use xlink:href="#V" x="633.594" y="276.941"/><use xlink:href="#O" x="637.992" y="276.941"/><use xlink:href="#O" x="642.391" y="276.941"/><use xlink:href="#Z" x="646.789" y="276.941"/><use xlink:href="#Z" x="651.188" y="276.941"/><use xlink:href="#aa" x="655.586" y="276.941"/><use xlink:href="#Z" x="659.984" y="276.941"/><use xlink:href="#aa" x="664.383" y="276.941"/></g><g><use xlink:href="#O" x="16" y="290.941"/><use xlink:href="#O" x="20.398" y="290.941"/><use xlink:href="#O" x="24.797" y="290.941"/><use xlink:href="#ao" x="29.195" y="290.941"/><use xlink:href="#at" x="33.594" y="290.941"/><use xlink:href="#Q" x="37.992" y="290.941"/><use xlink:href="#au" x="42.391" y="290.941"/><use xlink:href="#av" x="46.789" y="290.941"/><use xlink:href="#aw" x="51.188" y="290.941"/><use xlink:href="#ax" x="55.586" y="290.941"/></g><path d="M16 284.602v6h6v-6zm0 0" fill="#F2F2F2"/><path d="M16 284.602v6h6v-6zm0 0" fill="#7648EC"/><path d="M16 290.602h6v-6h-6zm0 0" fill="none" stroke="#000" stroke-miterlimit="10"/><g><use xlink:href="#U" x="436" y="289.941"/><use xlink:href="#V" x="440.398" y="289.941"/><use xlink:href="#W" x="444.797" y="289.941"/><use xlink:href="#O" x="449.195" y="289.941"/><use xlink:href="#O" x="453.594" y="289.941"/><use xlink:href="#ag" x="457.992" y="289.941"/><use xlink:href="#Z" x="462.391" y="289.941"/><use xlink:href="#X" x="466.789" y="289.941"/><use xlink:href="#an" x="471.188" y="289.941"/><use xlink:href="#Y" x="475.586" y="289.941"/></g><g><use xlink:href="#ab" x="496" y="289.941"/><use xlink:href="#ac" x="500.398" y="289.941"/><use xlink:href="#ad" x="504.797" y="289.941"/><use xlink:href="#O" x="509.195" y="289.941"/><use xlink:href="#O" x="513.594" y="289.941"/><use xlink:href="#ae" x="517.992" y="289.941"/><use xlink:href="#ah" x="522.391" y="289.941"/><use xlink:href="#as" x="526.789" y="289.941"/><use xlink:href="#ae" x="531.188" y="289.941"/><use xlink:href="#X" x="535.586" y="289.941"/></g><g><use xlink:href="#ab" x="556" y="289.941"/><use xlink:href="#U" x="560.398" y="289.941"/><use xlink:href="#af" x="564.797" y="289.941"/><use xlink:href="#O" x="569.195" y="289.941"/><use xlink:href="#O" x="573.594" y="289.941"/><use xlink:href="#X" x="577.992" y="289.941"/><use xlink:href="#Y" x="582.391" y="289.941"/><use xlink:href="#Z" x="586.789" y="289.941"/><use xlink:href="#ag" x="591.188" y="289.941"/><use xlink:href="#as" x="595.586" y="289.941"/></g><g><use xlink:href="#ai" x="616" y="289.941"/><use xlink:href="#aj" x="620.398" y="289.941"/><use xlink:href="#ak" x="624.797" y="289.941"/><use xlink:href="#al" x="629.195" y="289.941"/><use xlink:href="#V" x="633.594" y="289.941"/><use xlink:href="#O" x="637.992" y="289.941"/><use xlink:href="#O" x="642.391" y="289.941"/><use xlink:href="#O" x="646.789" y="289.941"/><use xlink:href="#ag" x="651.188" y="289.941"/><use xlink:href="#X" x="655.586" y="289.941"/><use xlink:href="#aa" x="659.984" y="289.941"/><use xlink:href="#ae" x="664.383" y="289.941"/></g><path d="M51 233h608M55 237V29" fill="none" stroke-width=".6" stroke="#1F1F1F" stroke-miterlimit="10"/><path d="M657 230v6l5-3zm0 0M52 31h6l-3-5zm0 0" fill="#7F1F1F"/></svg>